<svg width="914" height="834" viewBox="0 0 914 834" fill="none" xmlns="http://www.w3.org/2000/svg">
<mask id="path-1-outside-1_3_10" maskUnits="userSpaceOnUse" x="357.114" y="205.381" width="558.121" height="532.037" fill="black">
<rect fill="white" x="357.114" y="205.381" width="558.121" height="532.037"/>
<path d="M719.915 408.074C719.915 408.074 728.726 407.802 746.348 407.257C774.728 408.314 795.56 414.493 808.845 425.795C822.541 436.712 829.111 451.966 828.556 471.559C828.013 490.751 818.579 513.014 800.255 538.349C781.931 563.684 758.478 586.426 729.897 606.575L764.074 607.848C778.064 608.369 787.874 608.134 793.504 607.143C799.134 606.152 802.349 605.671 803.149 605.701C808.745 605.909 811.458 609.012 811.288 615.01C811.118 621.007 807.03 624.057 799.024 624.159C768.246 623.013 738.678 621.512 710.32 619.655C664.747 646.377 620.375 658.934 577.205 657.327C556.819 656.567 540.738 652.166 528.962 644.123C517.185 636.079 511.404 628.259 511.62 620.662C511.846 612.665 515.22 606.587 521.74 602.427C528.66 598.281 538.115 596.432 550.107 596.879C596.875 598.62 649.21 601.57 707.113 605.727C731.652 587.028 751.478 565.151 766.593 540.098C781.719 514.644 789.577 491.521 790.166 470.729C791.106 437.543 773.789 420.287 738.213 418.962C724.223 418.441 709.571 420.097 694.257 423.93C679.342 427.777 670.258 430.641 667.004 432.521C664.16 434.017 662.339 434.749 661.539 434.719C659.141 434.63 657.987 432.986 658.078 429.787C658.18 426.189 663.495 422.184 674.024 417.773C720.215 397.479 765.611 369.95 810.212 335.187C854.823 300.024 877.35 274.646 877.792 259.052C877.996 251.855 872.502 248.048 861.309 247.631C815.73 246.334 752.205 278.191 670.734 343.202C653.579 383.79 625.764 433.387 587.291 491.994C549.217 550.615 509.525 602.772 468.217 648.465C426.897 694.557 396.443 717.239 376.857 716.51C364.865 716.063 359.045 709.642 359.396 697.247C360.2 668.859 388.414 619.276 444.039 548.5C500.063 477.739 562.918 413.035 632.604 354.39C645.422 325.648 652.018 304.68 652.392 291.486C652.777 277.891 649.88 267.176 643.699 259.341C637.53 251.106 628.301 244.959 616.011 240.899C596.572 234.971 575.86 231.598 553.875 230.78C532.29 229.976 515.685 229.958 504.059 230.726C492.444 231.094 478.198 232.565 461.319 235.138C444.851 237.327 431.313 242.026 420.705 249.236C410.108 256.046 404.645 265.249 404.317 276.844C404 288.04 409.347 297.045 420.358 303.859C431.38 310.273 444.852 314.978 460.773 317.972C477.093 320.981 493.209 324.183 509.118 327.578C525.028 330.972 538.46 337.076 549.414 345.889C560.38 354.303 565.653 365.906 565.234 380.7C565.121 384.699 564.065 386.661 562.066 386.586C560.467 386.527 559.085 385.875 557.92 384.631C557.155 383.402 555.624 380.943 553.327 377.255C549.877 371.923 544.594 367.724 537.478 364.657C530.762 361.605 520.044 358.604 505.322 355.655C491.011 352.32 477.3 349.007 464.188 345.717C451.488 342.042 438.61 337.56 425.555 332.271C412.5 326.982 402.1 319.79 394.355 310.696C386.61 301.602 382.901 291.257 383.23 279.662C383.569 267.666 388.866 257.257 399.12 248.433C409.373 239.608 422.768 232.902 439.304 228.315C473.164 219.569 508.281 215.873 544.656 217.228C638.99 220.741 685.456 247.287 684.051 296.867C683.926 301.265 682.74 307.826 680.492 316.548C763.083 254.38 829.56 224.234 879.926 226.11C902.31 226.943 913.31 234.157 912.925 247.752C912.37 267.344 890.997 294.366 848.806 328.819C807.015 363.286 764.051 389.705 719.915 408.074ZM392.339 699.675C403.931 700.107 435.957 664.275 488.418 592.18C541.289 519.7 583.821 452.039 616.012 389.196C554.434 444.14 499.583 501.736 451.46 561.985C403.747 621.849 379.574 662.976 378.939 685.367C378.679 694.563 383.145 699.333 392.339 699.675ZM688.152 618.23L579.696 611.789C548.917 610.643 533.397 614.668 533.137 623.865C532.989 629.063 538.05 634.054 548.318 638.84C558.575 644.025 570.499 646.87 584.089 647.376C619.665 648.701 654.352 638.985 688.152 618.23Z"/>
</mask>
<path d="M719.915 408.074C719.915 408.074 728.726 407.802 746.348 407.257C774.728 408.314 795.56 414.493 808.845 425.795C822.541 436.712 829.111 451.966 828.556 471.559C828.013 490.751 818.579 513.014 800.255 538.349C781.931 563.684 758.478 586.426 729.897 606.575L764.074 607.848C778.064 608.369 787.874 608.134 793.504 607.143C799.134 606.152 802.349 605.671 803.149 605.701C808.745 605.909 811.458 609.012 811.288 615.01C811.118 621.007 807.03 624.057 799.024 624.159C768.246 623.013 738.678 621.512 710.32 619.655C664.747 646.377 620.375 658.934 577.205 657.327C556.819 656.567 540.738 652.166 528.962 644.123C517.185 636.079 511.404 628.259 511.62 620.662C511.846 612.665 515.22 606.587 521.74 602.427C528.66 598.281 538.115 596.432 550.107 596.879C596.875 598.62 649.21 601.57 707.113 605.727C731.652 587.028 751.478 565.151 766.593 540.098C781.719 514.644 789.577 491.521 790.166 470.729C791.106 437.543 773.789 420.287 738.213 418.962C724.223 418.441 709.571 420.097 694.257 423.93C679.342 427.777 670.258 430.641 667.004 432.521C664.16 434.017 662.339 434.749 661.539 434.719C659.141 434.63 657.987 432.986 658.078 429.787C658.18 426.189 663.495 422.184 674.024 417.773C720.215 397.479 765.611 369.95 810.212 335.187C854.823 300.024 877.35 274.646 877.792 259.052C877.996 251.855 872.502 248.048 861.309 247.631C815.73 246.334 752.205 278.191 670.734 343.202C653.579 383.79 625.764 433.387 587.291 491.994C549.217 550.615 509.525 602.772 468.217 648.465C426.897 694.557 396.443 717.239 376.857 716.51C364.865 716.063 359.045 709.642 359.396 697.247C360.2 668.859 388.414 619.276 444.039 548.5C500.063 477.739 562.918 413.035 632.604 354.39C645.422 325.648 652.018 304.68 652.392 291.486C652.777 277.891 649.88 267.176 643.699 259.341C637.53 251.106 628.301 244.959 616.011 240.899C596.572 234.971 575.86 231.598 553.875 230.78C532.29 229.976 515.685 229.958 504.059 230.726C492.444 231.094 478.198 232.565 461.319 235.138C444.851 237.327 431.313 242.026 420.705 249.236C410.108 256.046 404.645 265.249 404.317 276.844C404 288.04 409.347 297.045 420.358 303.859C431.38 310.273 444.852 314.978 460.773 317.972C477.093 320.981 493.209 324.183 509.118 327.578C525.028 330.972 538.46 337.076 549.414 345.889C560.38 354.303 565.653 365.906 565.234 380.7C565.121 384.699 564.065 386.661 562.066 386.586C560.467 386.527 559.085 385.875 557.92 384.631C557.155 383.402 555.624 380.943 553.327 377.255C549.877 371.923 544.594 367.724 537.478 364.657C530.762 361.605 520.044 358.604 505.322 355.655C491.011 352.32 477.3 349.007 464.188 345.717C451.488 342.042 438.61 337.56 425.555 332.271C412.5 326.982 402.1 319.79 394.355 310.696C386.61 301.602 382.901 291.257 383.23 279.662C383.569 267.666 388.866 257.257 399.12 248.433C409.373 239.608 422.768 232.902 439.304 228.315C473.164 219.569 508.281 215.873 544.656 217.228C638.99 220.741 685.456 247.287 684.051 296.867C683.926 301.265 682.74 307.826 680.492 316.548C763.083 254.38 829.56 224.234 879.926 226.11C902.31 226.943 913.31 234.157 912.925 247.752C912.37 267.344 890.997 294.366 848.806 328.819C807.015 363.286 764.051 389.705 719.915 408.074ZM392.339 699.675C403.931 700.107 435.957 664.275 488.418 592.18C541.289 519.7 583.821 452.039 616.012 389.196C554.434 444.14 499.583 501.736 451.46 561.985C403.747 621.849 379.574 662.976 378.939 685.367C378.679 694.563 383.145 699.333 392.339 699.675ZM688.152 618.23L579.696 611.789C548.917 610.643 533.397 614.668 533.137 623.865C532.989 629.063 538.05 634.054 548.318 638.84C558.575 644.025 570.499 646.87 584.089 647.376C619.665 648.701 654.352 638.985 688.152 618.23Z" fill="black"/>
<path d="M719.915 408.074L719.524 407.15L719.955 409.074L719.915 408.074ZM746.348 407.257L746.376 406.258L746.342 406.257L746.308 406.258L746.348 407.257ZM808.845 425.795L808.202 426.555L808.214 426.565L808.227 426.575L808.845 425.795ZM800.255 538.349L801.067 538.94L801.067 538.94L800.255 538.349ZM729.897 606.575L729.317 605.756L726.894 607.464L729.869 607.575L729.897 606.575ZM799.024 624.159L798.996 625.159L799.021 625.16L799.046 625.16L799.024 624.159ZM710.32 619.655L710.376 618.657L710.071 618.637L709.809 618.791L710.32 619.655ZM528.962 644.123L528.403 644.947L528.403 644.947L528.962 644.123ZM521.74 602.427L521.221 601.567L521.209 601.574L521.197 601.582L521.74 602.427ZM707.113 605.727L707.051 606.725L707.426 606.752L707.723 606.525L707.113 605.727ZM766.593 540.098L767.45 540.62L767.454 540.614L766.593 540.098ZM694.257 423.93L694.006 422.959L693.999 422.961L694.257 423.93ZM667.004 432.521L667.475 433.408L667.492 433.399L667.509 433.389L667.004 432.521ZM674.024 417.773L674.417 418.696L674.425 418.693L674.432 418.689L674.024 417.773ZM810.212 335.187L810.83 335.978L810.834 335.975L810.212 335.187ZM861.309 247.631L861.338 246.632L861.329 246.631L861.309 247.631ZM670.734 343.202L670.107 342.418L669.911 342.574L669.813 342.805L670.734 343.202ZM587.291 491.994L586.454 491.44L586.451 491.444L587.291 491.994ZM468.217 648.465L467.473 647.79L467.47 647.793L468.217 648.465ZM444.039 548.5L443.253 547.875L443.251 547.877L444.039 548.5ZM632.604 354.39L633.251 355.158L633.425 355.012L633.517 354.805L632.604 354.39ZM643.699 259.341L642.901 259.936L642.909 259.947L642.917 259.956L643.699 259.341ZM616.011 240.899L616.317 239.949L616.306 239.945L616.295 239.942L616.011 240.899ZM504.059 230.726L504.099 231.726L504.117 231.725L504.134 231.724L504.059 230.726ZM461.319 235.138L461.459 236.13L461.468 236.129L461.478 236.127L461.319 235.138ZM420.705 249.236L421.25 250.079L421.261 250.072L421.271 250.065L420.705 249.236ZM420.358 303.859L419.837 304.708L419.849 304.716L419.861 304.723L420.358 303.859ZM460.773 317.972L460.596 318.955L460.6 318.956L460.773 317.972ZM509.118 327.578L509.318 326.599L509.318 326.599L509.118 327.578ZM549.414 345.889L548.792 346.666L548.801 346.674L548.81 346.681L549.414 345.889ZM557.92 384.631L557.073 385.154L557.126 385.239L557.194 385.311L557.92 384.631ZM553.327 377.255L554.175 376.732L554.17 376.724L554.165 376.717L553.327 377.255ZM537.478 364.657L537.072 365.567L537.081 365.571L537.09 365.575L537.478 364.657ZM505.322 355.655L505.103 356.629L505.118 356.632L505.134 356.635L505.322 355.655ZM464.188 345.717L463.918 346.678L463.936 346.683L463.953 346.688L464.188 345.717ZM425.555 332.271L425.923 331.344L425.923 331.344L425.555 332.271ZM394.355 310.696L393.596 311.341L393.596 311.341L394.355 310.696ZM399.12 248.433L399.775 249.193L399.775 249.193L399.12 248.433ZM439.304 228.315L439.046 227.346L439.037 227.348L439.029 227.351L439.304 228.315ZM680.492 316.548L679.524 316.29L678.807 319.073L681.098 317.349L680.492 316.548ZM848.806 328.819L848.17 328.042L848.166 328.045L848.806 328.819ZM488.418 592.18L487.609 591.586L487.608 591.587L488.418 592.18ZM616.012 389.196L616.902 389.658L615.343 388.446L616.012 389.196ZM451.46 561.985L450.676 561.356L450.676 561.357L451.46 561.985ZM688.152 618.23L688.681 619.083L691.389 617.42L688.203 617.231L688.152 618.23ZM579.696 611.789L579.746 610.791L579.735 610.79L579.724 610.79L579.696 611.789ZM548.318 638.84L548.763 637.948L548.748 637.94L548.734 637.933L548.318 638.84ZM719.915 408.074C719.955 409.074 719.955 409.074 719.955 409.074C719.955 409.074 719.955 409.074 719.955 409.074C719.955 409.074 719.955 409.074 719.956 409.074C719.956 409.074 719.956 409.074 719.956 409.074C719.957 409.074 719.957 409.074 719.957 409.074C719.957 409.074 719.958 409.074 719.958 409.074C719.959 409.074 719.959 409.074 719.96 409.074C719.96 409.074 719.961 409.074 719.961 409.074C719.962 409.074 719.962 409.074 719.963 409.074C719.963 409.074 719.964 409.074 719.965 409.074C719.965 409.074 719.966 409.074 719.967 409.074C719.968 409.074 719.968 409.074 719.969 409.074C719.97 409.074 719.971 409.074 719.972 409.074C719.973 409.074 719.973 409.074 719.974 409.074C719.975 409.074 719.976 409.073 719.977 409.073C719.978 409.073 719.979 409.073 719.98 409.073C719.982 409.073 719.983 409.073 719.984 409.073C719.985 409.073 719.986 409.073 719.987 409.073C719.989 409.073 719.99 409.073 719.991 409.073C719.992 409.073 719.994 409.073 719.995 409.073C719.996 409.073 719.998 409.073 719.999 409.073C720.001 409.073 720.002 409.073 720.003 409.073C720.005 409.073 720.006 409.073 720.008 409.073C720.01 409.072 720.011 409.072 720.013 409.072C720.014 409.072 720.016 409.072 720.018 409.072C720.019 409.072 720.021 409.072 720.023 409.072C720.025 409.072 720.026 409.072 720.028 409.072C720.03 409.072 720.032 409.072 720.034 409.072C720.036 409.072 720.037 409.072 720.039 409.072C720.041 409.071 720.043 409.071 720.045 409.071C720.047 409.071 720.049 409.071 720.052 409.071C720.054 409.071 720.056 409.071 720.058 409.071C720.06 409.071 720.062 409.071 720.064 409.071C720.067 409.071 720.069 409.071 720.071 409.071C720.073 409.07 720.076 409.07 720.078 409.07C720.08 409.07 720.083 409.07 720.085 409.07C720.088 409.07 720.09 409.07 720.093 409.07C720.095 409.07 720.098 409.07 720.1 409.07C720.103 409.07 720.105 409.069 720.108 409.069C720.111 409.069 720.113 409.069 720.116 409.069C720.119 409.069 720.121 409.069 720.124 409.069C720.127 409.069 720.13 409.069 720.132 409.069C720.135 409.069 720.138 409.068 720.141 409.068C720.144 409.068 720.147 409.068 720.15 409.068C720.153 409.068 720.156 409.068 720.159 409.068C720.162 409.068 720.165 409.068 720.168 409.068C720.171 409.067 720.174 409.067 720.177 409.067C720.181 409.067 720.184 409.067 720.187 409.067C720.19 409.067 720.193 409.067 720.197 409.067C720.2 409.067 720.203 409.066 720.207 409.066C720.21 409.066 720.213 409.066 720.217 409.066C720.22 409.066 720.224 409.066 720.227 409.066C720.231 409.066 720.234 409.066 720.238 409.065C720.241 409.065 720.245 409.065 720.249 409.065C720.252 409.065 720.256 409.065 720.26 409.065C720.263 409.065 720.267 409.065 720.271 409.064C720.275 409.064 720.278 409.064 720.282 409.064C720.286 409.064 720.29 409.064 720.294 409.064C720.298 409.064 720.302 409.063 720.306 409.063C720.31 409.063 720.314 409.063 720.318 409.063C720.322 409.063 720.326 409.063 720.33 409.063C720.334 409.062 720.338 409.062 720.342 409.062C720.346 409.062 720.351 409.062 720.355 409.062C720.359 409.062 720.363 409.062 720.368 409.061C720.372 409.061 720.376 409.061 720.381 409.061C720.385 409.061 720.389 409.061 720.394 409.061C720.398 409.06 720.403 409.06 720.407 409.06C720.412 409.06 720.416 409.06 720.421 409.06C720.425 409.06 720.43 409.059 720.435 409.059C720.439 409.059 720.444 409.059 720.449 409.059C720.453 409.059 720.458 409.059 720.463 409.058C720.468 409.058 720.473 409.058 720.477 409.058C720.482 409.058 720.487 409.058 720.492 409.058C720.497 409.057 720.502 409.057 720.507 409.057C720.512 409.057 720.517 409.057 720.522 409.057C720.527 409.056 720.532 409.056 720.537 409.056C720.542 409.056 720.547 409.056 720.552 409.056C720.558 409.056 720.563 409.055 720.568 409.055C720.573 409.055 720.579 409.055 720.584 409.055C720.589 409.055 720.595 409.054 720.6 409.054C720.605 409.054 720.611 409.054 720.616 409.054C720.622 409.054 720.627 409.053 720.633 409.053C720.638 409.053 720.644 409.053 720.649 409.053C720.655 409.053 720.66 409.052 720.666 409.052C720.672 409.052 720.677 409.052 720.683 409.052C720.689 409.051 720.695 409.051 720.7 409.051C720.706 409.051 720.712 409.051 720.718 409.051C720.724 409.05 720.73 409.05 720.735 409.05C720.741 409.05 720.747 409.05 720.753 409.049C720.759 409.049 720.765 409.049 720.771 409.049C720.777 409.049 720.784 409.049 720.79 409.048C720.796 409.048 720.802 409.048 720.808 409.048C720.814 409.048 720.82 409.047 720.827 409.047C720.833 409.047 720.839 409.047 720.846 409.047C720.852 409.046 720.858 409.046 720.865 409.046C720.871 409.046 720.877 409.046 720.884 409.045C720.89 409.045 720.897 409.045 720.903 409.045C720.91 409.045 720.916 409.044 720.923 409.044C720.93 409.044 720.936 409.044 720.943 409.044C720.95 409.043 720.956 409.043 720.963 409.043C720.97 409.043 720.976 409.043 720.983 409.042C720.99 409.042 720.997 409.042 721.004 409.042C721.011 409.042 721.017 409.041 721.024 409.041C721.031 409.041 721.038 409.041 721.045 409.04C721.052 409.04 721.059 409.04 721.066 409.04C721.073 409.04 721.08 409.039 721.088 409.039C721.095 409.039 721.102 409.039 721.109 409.038C721.116 409.038 721.123 409.038 721.131 409.038C721.138 409.038 721.145 409.037 721.153 409.037C721.16 409.037 721.167 409.037 721.175 409.036C721.182 409.036 721.19 409.036 721.197 409.036C721.204 409.036 721.212 409.035 721.219 409.035C721.227 409.035 721.235 409.035 721.242 409.034C721.25 409.034 721.257 409.034 721.265 409.034C721.273 409.033 721.28 409.033 721.288 409.033C721.296 409.033 721.304 409.032 721.311 409.032C721.319 409.032 721.327 409.032 721.335 409.032C721.343 409.031 721.351 409.031 721.359 409.031C721.367 409.031 721.375 409.03 721.383 409.03C721.391 409.03 721.399 409.03 721.407 409.029C721.415 409.029 721.423 409.029 721.431 409.029C721.439 409.028 721.447 409.028 721.455 409.028C721.464 409.028 721.472 409.027 721.48 409.027C721.488 409.027 721.497 409.027 721.505 409.026C721.513 409.026 721.522 409.026 721.53 409.025C721.539 409.025 721.547 409.025 721.555 409.025C721.564 409.024 721.572 409.024 721.581 409.024C721.589 409.024 721.598 409.023 721.607 409.023C721.615 409.023 721.624 409.023 721.633 409.022C721.641 409.022 721.65 409.022 721.659 409.021C721.667 409.021 721.676 409.021 721.685 409.021C721.694 409.02 721.703 409.02 721.712 409.02C721.72 409.02 721.729 409.019 721.738 409.019C721.747 409.019 721.756 409.018 721.765 409.018C721.774 409.018 721.783 409.018 721.792 409.017C721.801 409.017 721.81 409.017 721.82 409.017C721.829 409.016 721.838 409.016 721.847 409.016C721.856 409.015 721.866 409.015 721.875 409.015C721.884 409.015 721.893 409.014 721.903 409.014C721.912 409.014 721.922 409.013 721.931 409.013C721.94 409.013 721.95 409.012 721.959 409.012C721.969 409.012 721.978 409.012 721.988 409.011C721.997 409.011 722.007 409.011 722.017 409.01C722.026 409.01 722.036 409.01 722.045 409.01C722.055 409.009 722.065 409.009 722.075 409.009C722.084 409.008 722.094 409.008 722.104 409.008C722.114 409.007 722.124 409.007 722.134 409.007C722.143 409.007 722.153 409.006 722.163 409.006C722.173 409.006 722.183 409.005 722.193 409.005C722.203 409.005 722.213 409.004 722.223 409.004C722.233 409.004 722.244 409.003 722.254 409.003C722.264 409.003 722.274 409.002 722.284 409.002C722.294 409.002 722.305 409.002 722.315 409.001C722.325 409.001 722.336 409.001 722.346 409C722.356 409 722.367 409 722.377 408.999C722.388 408.999 722.398 408.999 722.408 408.998C722.419 408.998 722.429 408.998 722.44 408.997C722.451 408.997 722.461 408.997 722.472 408.996C722.482 408.996 722.493 408.996 722.504 408.995C722.514 408.995 722.525 408.995 722.536 408.994C722.547 408.994 722.557 408.994 722.568 408.993C722.579 408.993 722.59 408.993 722.601 408.992C722.612 408.992 722.623 408.992 722.634 408.991C722.645 408.991 722.656 408.991 722.667 408.99C722.678 408.99 722.689 408.99 722.7 408.989C722.711 408.989 722.722 408.989 722.733 408.988C722.744 408.988 722.756 408.988 722.767 408.987C722.778 408.987 722.789 408.987 722.801 408.986C722.812 408.986 722.823 408.986 722.835 408.985C722.846 408.985 722.857 408.984 722.869 408.984C722.88 408.984 722.892 408.983 722.903 408.983C722.915 408.983 722.926 408.982 722.938 408.982C722.949 408.982 722.961 408.981 722.972 408.981C722.984 408.981 722.996 408.98 723.007 408.98C723.019 408.979 723.031 408.979 723.043 408.979C723.054 408.978 723.066 408.978 723.078 408.978C723.09 408.977 723.102 408.977 723.114 408.977C723.126 408.976 723.137 408.976 723.149 408.975C723.161 408.975 723.173 408.975 723.185 408.974C723.197 408.974 723.21 408.974 723.222 408.973C723.234 408.973 723.246 408.972 723.258 408.972C723.27 408.972 723.282 408.971 723.295 408.971C723.307 408.971 723.319 408.97 723.331 408.97C723.344 408.969 723.356 408.969 723.368 408.969C723.381 408.968 723.393 408.968 723.406 408.968C723.418 408.967 723.431 408.967 723.443 408.966C723.456 408.966 723.468 408.966 723.481 408.965C723.493 408.965 723.506 408.964 723.518 408.964C723.531 408.964 723.544 408.963 723.556 408.963C723.569 408.962 723.582 408.962 723.595 408.962C723.607 408.961 723.62 408.961 723.633 408.96C723.646 408.96 723.659 408.96 723.672 408.959C723.685 408.959 723.698 408.958 723.711 408.958C723.724 408.958 723.737 408.957 723.75 408.957C723.763 408.956 723.776 408.956 723.789 408.956C723.802 408.955 723.815 408.955 723.828 408.954C723.841 408.954 723.855 408.954 723.868 408.953C723.881 408.953 723.894 408.952 723.908 408.952C723.921 408.952 723.934 408.951 723.948 408.951C723.961 408.95 723.974 408.95 723.988 408.95C724.001 408.949 724.015 408.949 724.028 408.948C724.042 408.948 724.055 408.947 724.069 408.947C724.083 408.947 724.096 408.946 724.11 408.946C724.123 408.945 724.137 408.945 724.151 408.944C724.165 408.944 724.178 408.944 724.192 408.943C724.206 408.943 724.22 408.942 724.234 408.942C724.247 408.941 724.261 408.941 724.275 408.941C724.289 408.94 724.303 408.94 724.317 408.939C724.331 408.939 724.345 408.938 724.359 408.938C724.373 408.938 724.387 408.937 724.401 408.937C724.415 408.936 724.43 408.936 724.444 408.935C724.458 408.935 724.472 408.935 724.486 408.934C724.501 408.934 724.515 408.933 724.529 408.933C724.544 408.932 724.558 408.932 724.572 408.931C724.587 408.931 724.601 408.931 724.616 408.93C724.63 408.93 724.645 408.929 724.659 408.929C724.674 408.928 724.688 408.928 724.703 408.927C724.717 408.927 724.732 408.927 724.747 408.926C724.761 408.926 724.776 408.925 724.791 408.925C724.805 408.924 724.82 408.924 724.835 408.923C724.85 408.923 724.865 408.922 724.879 408.922C724.894 408.921 724.909 408.921 724.924 408.921C724.939 408.92 724.954 408.92 724.969 408.919C724.984 408.919 724.999 408.918 725.014 408.918C725.029 408.917 725.044 408.917 725.059 408.916C725.074 408.916 725.09 408.915 725.105 408.915C725.12 408.915 725.135 408.914 725.15 408.914C725.166 408.913 725.181 408.913 725.196 408.912C725.212 408.912 725.227 408.911 725.242 408.911C725.258 408.91 725.273 408.91 725.289 408.909C725.304 408.909 725.32 408.908 725.335 408.908C725.351 408.907 725.366 408.907 725.382 408.906C725.397 408.906 725.413 408.905 725.429 408.905C725.444 408.904 725.46 408.904 725.476 408.904C725.492 408.903 725.507 408.903 725.523 408.902C725.539 408.902 725.555 408.901 725.571 408.901C725.586 408.9 725.602 408.9 725.618 408.899C725.634 408.899 725.65 408.898 725.666 408.898C725.682 408.897 725.698 408.897 725.714 408.896C725.73 408.896 725.746 408.895 725.763 408.895C725.779 408.894 725.795 408.894 725.811 408.893C725.827 408.893 725.844 408.892 725.86 408.892C725.876 408.891 725.892 408.891 725.909 408.89C725.925 408.89 725.941 408.889 725.958 408.889C725.974 408.888 725.991 408.888 726.007 408.887C726.024 408.887 726.04 408.886 726.057 408.886C726.073 408.885 726.09 408.885 726.106 408.884C726.123 408.884 726.14 408.883 726.156 408.882C726.173 408.882 726.19 408.881 726.206 408.881C726.223 408.88 726.24 408.88 726.257 408.879C726.273 408.879 726.29 408.878 726.307 408.878C726.324 408.877 726.341 408.877 726.358 408.876C726.375 408.876 726.392 408.875 726.409 408.875C726.426 408.874 726.443 408.874 726.46 408.873C726.477 408.873 726.494 408.872 726.511 408.872C726.528 408.871 726.546 408.87 726.563 408.87C726.58 408.869 726.597 408.869 726.615 408.868C726.632 408.868 726.649 408.867 726.666 408.867C726.684 408.866 726.701 408.866 726.719 408.865C726.736 408.865 726.753 408.864 726.771 408.864C726.788 408.863 726.806 408.862 726.823 408.862C726.841 408.861 726.859 408.861 726.876 408.86C726.894 408.86 726.911 408.859 726.929 408.859C726.947 408.858 726.965 408.858 726.982 408.857C727 408.856 727.018 408.856 727.036 408.855C727.053 408.855 727.071 408.854 727.089 408.854C727.107 408.853 727.125 408.853 727.143 408.852C727.161 408.851 727.179 408.851 727.197 408.85C727.215 408.85 727.233 408.849 727.251 408.849C727.269 408.848 727.287 408.848 727.305 408.847C727.323 408.846 727.342 408.846 727.36 408.845C727.378 408.845 727.396 408.844 727.415 408.844C727.433 408.843 727.451 408.842 727.47 408.842C727.488 408.841 727.506 408.841 727.525 408.84C727.543 408.84 727.562 408.839 727.58 408.838C727.599 408.838 727.617 408.837 727.636 408.837C727.654 408.836 727.673 408.836 727.691 408.835C727.71 408.834 727.729 408.834 727.747 408.833C727.766 408.833 727.785 408.832 727.804 408.832C727.822 408.831 727.841 408.83 727.86 408.83C727.879 408.829 727.898 408.829 727.916 408.828C727.935 408.828 727.954 408.827 727.973 408.826C727.992 408.826 728.011 408.825 728.03 408.825C728.049 408.824 728.068 408.823 728.087 408.823C728.106 408.822 728.126 408.822 728.145 408.821C728.164 408.82 728.183 408.82 728.202 408.819C728.222 408.819 728.241 408.818 728.26 408.817C728.279 408.817 728.299 408.816 728.318 408.816C728.337 408.815 728.357 408.814 728.376 408.814C728.396 408.813 728.415 408.813 728.435 408.812C728.454 408.811 728.474 408.811 728.493 408.81C728.513 408.81 728.532 408.809 728.552 408.808C728.572 408.808 728.591 408.807 728.611 408.807C728.631 408.806 728.65 408.805 728.67 408.805C728.69 408.804 728.71 408.804 728.73 408.803C728.749 408.802 728.769 408.802 728.789 408.801C728.809 408.801 728.829 408.8 728.849 408.799C728.869 408.799 728.889 408.798 728.909 408.797C728.929 408.797 728.949 408.796 728.969 408.796C728.989 408.795 729.009 408.794 729.03 408.794C729.05 408.793 729.07 408.792 729.09 408.792C729.11 408.791 729.131 408.791 729.151 408.79C729.171 408.789 729.192 408.789 729.212 408.788C729.232 408.787 729.253 408.787 729.273 408.786C729.294 408.786 729.314 408.785 729.335 408.784C729.355 408.784 729.376 408.783 729.396 408.782C729.417 408.782 729.437 408.781 729.458 408.78C729.479 408.78 729.499 408.779 729.52 408.779C729.541 408.778 729.561 408.777 729.582 408.777C729.603 408.776 729.624 408.775 729.645 408.775C729.665 408.774 729.686 408.773 729.707 408.773C729.728 408.772 729.749 408.771 729.77 408.771C729.791 408.77 729.812 408.77 729.833 408.769C729.854 408.768 729.875 408.768 729.896 408.767C729.917 408.766 729.939 408.766 729.96 408.765C729.981 408.764 730.002 408.764 730.023 408.763C730.045 408.762 730.066 408.762 730.087 408.761C730.109 408.76 730.13 408.76 730.151 408.759C730.173 408.758 730.194 408.758 730.215 408.757C730.237 408.756 730.258 408.756 730.28 408.755C730.301 408.754 730.323 408.754 730.345 408.753C730.366 408.752 730.388 408.752 730.409 408.751C730.431 408.75 730.453 408.75 730.474 408.749C730.496 408.748 730.518 408.748 730.54 408.747C730.561 408.746 730.583 408.746 730.605 408.745C730.627 408.744 730.649 408.744 730.671 408.743C730.693 408.742 730.715 408.742 730.737 408.741C730.759 408.74 730.781 408.74 730.803 408.739C730.825 408.738 730.847 408.738 730.869 408.737C730.891 408.736 730.913 408.735 730.935 408.735C730.957 408.734 730.98 408.733 731.002 408.733C731.024 408.732 731.046 408.731 731.069 408.731C731.091 408.73 731.113 408.729 731.136 408.729C731.158 408.728 731.181 408.727 731.203 408.727C731.226 408.726 731.248 408.725 731.271 408.724C731.293 408.724 731.316 408.723 731.338 408.722C731.361 408.722 731.383 408.721 731.406 408.72C731.429 408.72 731.451 408.719 731.474 408.718C731.497 408.717 731.52 408.717 731.542 408.716C731.565 408.715 731.588 408.715 731.611 408.714C731.634 408.713 731.657 408.713 731.68 408.712C731.702 408.711 731.725 408.71 731.748 408.71C731.771 408.709 731.794 408.708 731.817 408.708C731.841 408.707 731.864 408.706 731.887 408.705C731.91 408.705 731.933 408.704 731.956 408.703C731.979 408.703 732.003 408.702 732.026 408.701C732.049 408.7 732.072 408.7 732.096 408.699C732.119 408.698 732.142 408.697 732.166 408.697C732.189 408.696 732.213 408.695 732.236 408.695C732.26 408.694 732.283 408.693 732.307 408.692C732.33 408.692 732.354 408.691 732.377 408.69C732.401 408.69 732.425 408.689 732.448 408.688C732.472 408.687 732.496 408.687 732.519 408.686C732.543 408.685 732.567 408.684 732.591 408.684C732.614 408.683 732.638 408.682 732.662 408.681C732.686 408.681 732.71 408.68 732.734 408.679C732.758 408.678 732.782 408.678 732.806 408.677C732.83 408.676 732.854 408.676 732.878 408.675C732.902 408.674 732.926 408.673 732.95 408.673C732.974 408.672 732.998 408.671 733.023 408.67C733.047 408.67 733.071 408.669 733.095 408.668C733.12 408.667 733.144 408.667 733.168 408.666C733.192 408.665 733.217 408.664 733.241 408.664C733.266 408.663 733.29 408.662 733.315 408.661C733.339 408.661 733.364 408.66 733.388 408.659C733.413 408.658 733.437 408.657 733.462 408.657C733.486 408.656 733.511 408.655 733.536 408.654C733.56 408.654 733.585 408.653 733.61 408.652C733.635 408.651 733.659 408.651 733.684 408.65C733.709 408.649 733.734 408.648 733.759 408.648C733.784 408.647 733.808 408.646 733.833 408.645C733.858 408.644 733.883 408.644 733.908 408.643C733.933 408.642 733.958 408.641 733.983 408.641C734.008 408.64 734.034 408.639 734.059 408.638C734.084 408.637 734.109 408.637 734.134 408.636C734.159 408.635 734.185 408.634 734.21 408.634C734.235 408.633 734.261 408.632 734.286 408.631C734.311 408.63 734.337 408.63 734.362 408.629C734.387 408.628 734.413 408.627 734.438 408.627C734.464 408.626 734.489 408.625 734.515 408.624C734.54 408.623 734.566 408.623 734.592 408.622C734.617 408.621 734.643 408.62 734.669 408.619C734.694 408.619 734.72 408.618 734.746 408.617C734.771 408.616 734.797 408.615 734.823 408.615C734.849 408.614 734.875 408.613 734.901 408.612C734.926 408.611 734.952 408.611 734.978 408.61C735.004 408.609 735.03 408.608 735.056 408.607C735.082 408.607 735.108 408.606 735.134 408.605C735.16 408.604 735.187 408.603 735.213 408.603C735.239 408.602 735.265 408.601 735.291 408.6C735.318 408.599 735.344 408.599 735.37 408.598C735.396 408.597 735.423 408.596 735.449 408.595C735.475 408.594 735.502 408.594 735.528 408.593C735.555 408.592 735.581 408.591 735.607 408.59C735.634 408.59 735.661 408.589 735.687 408.588C735.714 408.587 735.74 408.586 735.767 408.585C735.793 408.585 735.82 408.584 735.847 408.583C735.873 408.582 735.9 408.581 735.927 408.581C735.954 408.58 735.98 408.579 736.007 408.578C736.034 408.577 736.061 408.576 736.088 408.576C736.115 408.575 736.142 408.574 736.169 408.573C736.196 408.572 736.223 408.571 736.25 408.571C736.277 408.57 736.304 408.569 736.331 408.568C736.358 408.567 736.385 408.566 736.412 408.566C736.439 408.565 736.466 408.564 736.494 408.563C736.521 408.562 736.548 408.561 736.575 408.56C736.603 408.56 736.63 408.559 736.657 408.558C736.685 408.557 736.712 408.556 736.74 408.555C736.767 408.555 736.795 408.554 736.822 408.553C736.85 408.552 736.877 408.551 736.905 408.55C736.932 408.549 736.96 408.549 736.987 408.548C737.015 408.547 737.043 408.546 737.07 408.545C737.098 408.544 737.126 408.543 737.154 408.543C737.181 408.542 737.209 408.541 737.237 408.54C737.265 408.539 737.293 408.538 737.321 408.537C737.348 408.537 737.376 408.536 737.404 408.535C737.432 408.534 737.46 408.533 737.488 408.532C737.516 408.531 737.544 408.531 737.573 408.53C737.601 408.529 737.629 408.528 737.657 408.527C737.685 408.526 737.713 408.525 737.742 408.524C737.77 408.524 737.798 408.523 737.826 408.522C737.855 408.521 737.883 408.52 737.911 408.519C737.94 408.518 737.968 408.517 737.997 408.517C738.025 408.516 738.053 408.515 738.082 408.514C738.11 408.513 738.139 408.512 738.168 408.511C738.196 408.51 738.225 408.51 738.253 408.509C738.282 408.508 738.311 408.507 738.339 408.506C738.368 408.505 738.397 408.504 738.426 408.503C738.454 408.502 738.483 408.502 738.512 408.501C738.541 408.5 738.57 408.499 738.599 408.498C738.628 408.497 738.656 408.496 738.685 408.495C738.714 408.494 738.743 408.493 738.772 408.493C738.801 408.492 738.831 408.491 738.86 408.49C738.889 408.489 738.918 408.488 738.947 408.487C738.976 408.486 739.005 408.485 739.035 408.484C739.064 408.484 739.093 408.483 739.123 408.482C739.152 408.481 739.181 408.48 739.211 408.479C739.24 408.478 739.269 408.477 739.299 408.476C739.328 408.475 739.358 408.475 739.387 408.474C739.417 408.473 739.446 408.472 739.476 408.471C739.505 408.47 739.535 408.469 739.565 408.468C739.594 408.467 739.624 408.466 739.654 408.465C739.683 408.464 739.713 408.464 739.743 408.463C739.773 408.462 739.803 408.461 739.832 408.46C739.862 408.459 739.892 408.458 739.922 408.457C739.952 408.456 739.982 408.455 740.012 408.454C740.042 408.453 740.072 408.452 740.102 408.452C740.132 408.451 740.162 408.45 740.192 408.449C740.222 408.448 740.252 408.447 740.283 408.446C740.313 408.445 740.343 408.444 740.373 408.443C740.404 408.442 740.434 408.441 740.464 408.44C740.494 408.439 740.525 408.438 740.555 408.437C740.586 408.437 740.616 408.436 740.646 408.435C740.677 408.434 740.707 408.433 740.738 408.432C740.768 408.431 740.799 408.43 740.83 408.429C740.86 408.428 740.891 408.427 740.921 408.426C740.952 408.425 740.983 408.424 741.013 408.423C741.044 408.422 741.075 408.421 741.106 408.42C741.136 408.42 741.167 408.419 741.198 408.418C741.229 408.417 741.26 408.416 741.291 408.415C741.322 408.414 741.353 408.413 741.384 408.412C741.415 408.411 741.446 408.41 741.477 408.409C741.508 408.408 741.539 408.407 741.57 408.406C741.601 408.405 741.632 408.404 741.664 408.403C741.695 408.402 741.726 408.401 741.757 408.4C741.788 408.399 741.82 408.398 741.851 408.397C741.882 408.396 741.914 408.396 741.945 408.395C741.977 408.394 742.008 408.393 742.039 408.392C742.071 408.391 742.102 408.39 742.134 408.389C742.165 408.388 742.197 408.387 742.229 408.386C742.26 408.385 742.292 408.384 742.323 408.383C742.355 408.382 742.387 408.381 742.419 408.38C742.45 408.379 742.482 408.378 742.514 408.377C742.546 408.376 742.577 408.375 742.609 408.374C742.641 408.373 742.673 408.372 742.705 408.371C742.737 408.37 742.769 408.369 742.801 408.368C742.833 408.367 742.865 408.366 742.897 408.365C742.929 408.364 742.961 408.363 742.993 408.362C743.025 408.361 743.058 408.36 743.09 408.359C743.122 408.358 743.154 408.357 743.186 408.356C743.219 408.355 743.251 408.354 743.283 408.353C743.316 408.352 743.348 408.351 743.38 408.35C743.413 408.349 743.445 408.348 743.478 408.347C743.51 408.346 743.543 408.345 743.575 408.344C743.608 408.343 743.64 408.342 743.673 408.341C743.706 408.34 743.738 408.339 743.771 408.338C743.804 408.337 743.836 408.336 743.869 408.335C743.902 408.334 743.935 408.333 743.967 408.332C744 408.331 744.033 408.33 744.066 408.329C744.099 408.328 744.132 408.327 744.165 408.326C744.198 408.325 744.23 408.324 744.263 408.323C744.296 408.322 744.33 408.321 744.363 408.32C744.396 408.319 744.429 408.318 744.462 408.317C744.495 408.316 744.528 408.315 744.561 408.314C744.595 408.313 744.628 408.312 744.661 408.311C744.694 408.31 744.728 408.309 744.761 408.308C744.794 408.306 744.828 408.305 744.861 408.304C744.895 408.303 744.928 408.302 744.962 408.301C744.995 408.3 745.029 408.299 745.062 408.298C745.096 408.297 745.129 408.296 745.163 408.295C745.196 408.294 745.23 408.293 745.264 408.292C745.297 408.291 745.331 408.29 745.365 408.289C745.399 408.288 745.432 408.287 745.466 408.286C745.5 408.285 745.534 408.284 745.568 408.283C745.602 408.282 745.636 408.28 745.669 408.279C745.703 408.278 745.737 408.277 745.771 408.276C745.805 408.275 745.84 408.274 745.874 408.273C745.908 408.272 745.942 408.271 745.976 408.27C746.01 408.269 746.044 408.268 746.078 408.267C746.113 408.266 746.147 408.265 746.181 408.264C746.216 408.263 746.25 408.262 746.284 408.26C746.319 408.259 746.353 408.258 746.387 408.257L746.348 407.257L746.308 406.258C746.273 406.259 746.239 406.26 746.205 406.261C746.17 406.262 746.136 406.263 746.102 406.264C746.067 406.265 746.033 406.266 745.999 406.267C745.965 406.268 745.931 406.269 745.896 406.27C745.862 406.271 745.828 406.272 745.794 406.274C745.76 406.275 745.726 406.276 745.692 406.277C745.658 406.278 745.624 406.279 745.59 406.28C745.556 406.281 745.522 406.282 745.488 406.283C745.454 406.284 745.421 406.285 745.387 406.286C745.353 406.287 745.319 406.288 745.285 406.289C745.252 406.29 745.218 406.291 745.184 406.292C745.151 406.293 745.117 406.294 745.083 406.295C745.05 406.297 745.016 406.298 744.983 406.299C744.949 406.3 744.916 406.301 744.882 406.302C744.849 406.303 744.815 406.304 744.782 406.305C744.748 406.306 744.715 406.307 744.682 406.308C744.648 406.309 744.615 406.31 744.582 406.311C744.548 406.312 744.515 406.313 744.482 406.314C744.449 406.315 744.416 406.316 744.382 406.317C744.349 406.318 744.316 406.319 744.283 406.32C744.25 406.321 744.217 406.322 744.184 406.323C744.151 406.324 744.118 406.325 744.085 406.326C744.052 406.327 744.019 406.328 743.986 406.329C743.954 406.33 743.921 406.331 743.888 406.332C743.855 406.333 743.822 406.334 743.79 406.335C743.757 406.336 743.724 406.337 743.691 406.338C743.659 406.339 743.626 406.341 743.594 406.342C743.561 406.343 743.528 406.344 743.496 406.345C743.463 406.346 743.431 406.347 743.398 406.348C743.366 406.349 743.333 406.35 743.301 406.351C743.269 406.352 743.236 406.353 743.204 406.354C743.172 406.355 743.139 406.356 743.107 406.357C743.075 406.358 743.043 406.359 743.01 406.36C742.978 406.361 742.946 406.362 742.914 406.363C742.882 406.364 742.85 406.365 742.818 406.365C742.785 406.366 742.753 406.367 742.721 406.368C742.689 406.369 742.657 406.37 742.626 406.371C742.594 406.372 742.562 406.373 742.53 406.374C742.498 406.375 742.466 406.376 742.434 406.377C742.403 406.378 742.371 406.379 742.339 406.38C742.307 406.381 742.276 406.382 742.244 406.383C742.212 406.384 742.181 406.385 742.149 406.386C742.118 406.387 742.086 406.388 742.054 406.389C742.023 406.39 741.991 406.391 741.96 406.392C741.929 406.393 741.897 406.394 741.866 406.395C741.834 406.396 741.803 406.397 741.772 406.398C741.74 406.399 741.709 406.4 741.678 406.401C741.646 406.402 741.615 406.403 741.584 406.404C741.553 406.405 741.522 406.406 741.491 406.407C741.459 406.407 741.428 406.408 741.397 406.409C741.366 406.41 741.335 406.411 741.304 406.412C741.273 406.413 741.242 406.414 741.211 406.415C741.18 406.416 741.15 406.417 741.119 406.418C741.088 406.419 741.057 406.42 741.026 406.421C740.995 406.422 740.965 406.423 740.934 406.424C740.903 406.425 740.873 406.426 740.842 406.427C740.811 406.427 740.781 406.428 740.75 406.429C740.719 406.43 740.689 406.431 740.658 406.432C740.628 406.433 740.597 406.434 740.567 406.435C740.537 406.436 740.506 406.437 740.476 406.438C740.445 406.439 740.415 406.44 740.385 406.441C740.354 406.442 740.324 406.443 740.294 406.443C740.264 406.444 740.233 406.445 740.203 406.446C740.173 406.447 740.143 406.448 740.113 406.449C740.083 406.45 740.053 406.451 740.022 406.452C739.992 406.453 739.962 406.454 739.932 406.455C739.902 406.456 739.872 406.457 739.843 406.457C739.813 406.458 739.783 406.459 739.753 406.46C739.723 406.461 739.693 406.462 739.663 406.463C739.634 406.464 739.604 406.465 739.574 406.466C739.545 406.467 739.515 406.468 739.485 406.468C739.456 406.469 739.426 406.47 739.396 406.471C739.367 406.472 739.337 406.473 739.308 406.474C739.278 406.475 739.249 406.476 739.219 406.477C739.19 406.478 739.16 406.479 739.131 406.479C739.102 406.48 739.072 406.481 739.043 406.482C739.014 406.483 738.984 406.484 738.955 406.485C738.926 406.486 738.897 406.487 738.868 406.488C738.838 406.488 738.809 406.489 738.78 406.49C738.751 406.491 738.722 406.492 738.693 406.493C738.664 406.494 738.635 406.495 738.606 406.496C738.577 406.497 738.548 406.497 738.519 406.498C738.49 406.499 738.461 406.5 738.433 406.501C738.404 406.502 738.375 406.503 738.346 406.504C738.317 406.505 738.289 406.505 738.26 406.506C738.231 406.507 738.203 406.508 738.174 406.509C738.145 406.51 738.117 406.511 738.088 406.512C738.06 406.513 738.031 406.513 738.002 406.514C737.974 406.515 737.946 406.516 737.917 406.517C737.889 406.518 737.86 406.519 737.832 406.52C737.804 406.52 737.775 406.521 737.747 406.522C737.719 406.523 737.69 406.524 737.662 406.525C737.634 406.526 737.606 406.527 737.577 406.527C737.549 406.528 737.521 406.529 737.493 406.53C737.465 406.531 737.437 406.532 737.409 406.533C737.381 406.534 737.353 406.534 737.325 406.535C737.297 406.536 737.269 406.537 737.241 406.538C737.213 406.539 737.185 406.54 737.158 406.54C737.13 406.541 737.102 406.542 737.074 406.543C737.046 406.544 737.019 406.545 736.991 406.546C736.963 406.546 736.936 406.547 736.908 406.548C736.88 406.549 736.853 406.55 736.825 406.551C736.798 406.552 736.77 406.552 736.743 406.553C736.715 406.554 736.688 406.555 736.66 406.556C736.633 406.557 736.605 406.557 736.578 406.558C736.551 406.559 736.523 406.56 736.496 406.561C736.469 406.562 736.441 406.563 736.414 406.563C736.387 406.564 736.36 406.565 736.333 406.566C736.306 406.567 736.278 406.568 736.251 406.568C736.224 406.569 736.197 406.57 736.17 406.571C736.143 406.572 736.116 406.573 736.089 406.573C736.062 406.574 736.035 406.575 736.008 406.576C735.982 406.577 735.955 406.578 735.928 406.578C735.901 406.579 735.874 406.58 735.847 406.581C735.821 406.582 735.794 406.583 735.767 406.583C735.741 406.584 735.714 406.585 735.687 406.586C735.661 406.587 735.634 406.587 735.608 406.588C735.581 406.589 735.555 406.59 735.528 406.591C735.502 406.592 735.475 406.592 735.449 406.593C735.422 406.594 735.396 406.595 735.37 406.596C735.343 406.596 735.317 406.597 735.291 406.598C735.264 406.599 735.238 406.6 735.212 406.601C735.186 406.601 735.159 406.602 735.133 406.603C735.107 406.604 735.081 406.605 735.055 406.605C735.029 406.606 735.003 406.607 734.977 406.608C734.951 406.609 734.925 406.609 734.899 406.61C734.873 406.611 734.847 406.612 734.821 406.613C734.795 406.613 734.769 406.614 734.744 406.615C734.718 406.616 734.692 406.617 734.666 406.617C734.64 406.618 734.615 406.619 734.589 406.62C734.563 406.621 734.538 406.621 734.512 406.622C734.487 406.623 734.461 406.624 734.435 406.625C734.41 406.625 734.384 406.626 734.359 406.627C734.333 406.628 734.308 406.628 734.283 406.629C734.257 406.63 734.232 406.631 734.206 406.632C734.181 406.632 734.156 406.633 734.131 406.634C734.105 406.635 734.08 406.636 734.055 406.636C734.03 406.637 734.004 406.638 733.979 406.639C733.954 406.639 733.929 406.64 733.904 406.641C733.879 406.642 733.854 406.643 733.829 406.643C733.804 406.644 733.779 406.645 733.754 406.646C733.729 406.646 733.704 406.647 733.679 406.648C733.654 406.649 733.629 406.649 733.605 406.65C733.58 406.651 733.555 406.652 733.53 406.653C733.506 406.653 733.481 406.654 733.456 406.655C733.432 406.656 733.407 406.656 733.382 406.657C733.358 406.658 733.333 406.659 733.309 406.659C733.284 406.66 733.26 406.661 733.235 406.662C733.211 406.662 733.186 406.663 733.162 406.664C733.137 406.665 733.113 406.665 733.089 406.666C733.064 406.667 733.04 406.668 733.016 406.668C732.992 406.669 732.967 406.67 732.943 406.671C732.919 406.671 732.895 406.672 732.871 406.673C732.846 406.674 732.822 406.674 732.798 406.675C732.774 406.676 732.75 406.677 732.726 406.677C732.702 406.678 732.678 406.679 732.654 406.68C732.63 406.68 732.606 406.681 732.583 406.682C732.559 406.683 732.535 406.683 732.511 406.684C732.487 406.685 732.464 406.685 732.44 406.686C732.416 406.687 732.392 406.688 732.369 406.688C732.345 406.689 732.321 406.69 732.298 406.691C732.274 406.691 732.251 406.692 732.227 406.693C732.204 406.694 732.18 406.694 732.157 406.695C732.133 406.696 732.11 406.696 732.086 406.697C732.063 406.698 732.04 406.699 732.016 406.699C731.993 406.7 731.97 406.701 731.946 406.701C731.923 406.702 731.9 406.703 731.877 406.704C731.854 406.704 731.83 406.705 731.807 406.706C731.784 406.706 731.761 406.707 731.738 406.708C731.715 406.709 731.692 406.709 731.669 406.71C731.646 406.711 731.623 406.711 731.6 406.712C731.577 406.713 731.554 406.714 731.531 406.714C731.509 406.715 731.486 406.716 731.463 406.716C731.44 406.717 731.417 406.718 731.395 406.719C731.372 406.719 731.349 406.72 731.327 406.721C731.304 406.721 731.281 406.722 731.259 406.723C731.236 406.723 731.214 406.724 731.191 406.725C731.169 406.726 731.146 406.726 731.124 406.727C731.101 406.728 731.079 406.728 731.056 406.729C731.034 406.73 731.012 406.73 730.989 406.731C730.967 406.732 730.945 406.732 730.923 406.733C730.9 406.734 730.878 406.734 730.856 406.735C730.834 406.736 730.812 406.737 730.789 406.737C730.767 406.738 730.745 406.739 730.723 406.739C730.701 406.74 730.679 406.741 730.657 406.741C730.635 406.742 730.613 406.743 730.591 406.743C730.569 406.744 730.547 406.745 730.526 406.745C730.504 406.746 730.482 406.747 730.46 406.747C730.438 406.748 730.417 406.749 730.395 406.749C730.373 406.75 730.352 406.751 730.33 406.751C730.308 406.752 730.287 406.753 730.265 406.753C730.244 406.754 730.222 406.755 730.2 406.755C730.179 406.756 730.157 406.757 730.136 406.757C730.115 406.758 730.093 406.759 730.072 406.759C730.05 406.76 730.029 406.761 730.008 406.761C729.986 406.762 729.965 406.763 729.944 406.763C729.923 406.764 729.901 406.765 729.88 406.765C729.859 406.766 729.838 406.767 729.817 406.767C729.796 406.768 729.775 406.769 729.754 406.769C729.733 406.77 729.712 406.771 729.691 406.771C729.67 406.772 729.649 406.772 729.628 406.773C729.607 406.774 729.586 406.774 729.565 406.775C729.544 406.776 729.524 406.776 729.503 406.777C729.482 406.778 729.461 406.778 729.441 406.779C729.42 406.78 729.399 406.78 729.379 406.781C729.358 406.781 729.337 406.782 729.317 406.783C729.296 406.783 729.276 406.784 729.255 406.785C729.235 406.785 729.214 406.786 729.194 406.787C729.173 406.787 729.153 406.788 729.133 406.788C729.112 406.789 729.092 406.79 729.072 406.79C729.051 406.791 729.031 406.792 729.011 406.792C728.99 406.793 728.97 406.793 728.95 406.794C728.93 406.795 728.91 406.795 728.89 406.796C728.87 406.797 728.85 406.797 728.83 406.798C728.809 406.798 728.789 406.799 728.77 406.8C728.75 406.8 728.73 406.801 728.71 406.801C728.69 406.802 728.67 406.803 728.65 406.803C728.63 406.804 728.611 406.805 728.591 406.805C728.571 406.806 728.551 406.806 728.532 406.807C728.512 406.808 728.492 406.808 728.473 406.809C728.453 406.809 728.433 406.81 728.414 406.811C728.394 406.811 728.375 406.812 728.355 406.812C728.336 406.813 728.316 406.814 728.297 406.814C728.277 406.815 728.258 406.815 728.239 406.816C728.219 406.817 728.2 406.817 728.181 406.818C728.161 406.818 728.142 406.819 728.123 406.82C728.104 406.82 728.084 406.821 728.065 406.821C728.046 406.822 728.027 406.823 728.008 406.823C727.989 406.824 727.97 406.824 727.951 406.825C727.932 406.826 727.913 406.826 727.894 406.827C727.875 406.827 727.856 406.828 727.837 406.828C727.818 406.829 727.799 406.83 727.78 406.83C727.762 406.831 727.743 406.831 727.724 406.832C727.705 406.833 727.687 406.833 727.668 406.834C727.649 406.834 727.631 406.835 727.612 406.835C727.593 406.836 727.575 406.837 727.556 406.837C727.538 406.838 727.519 406.838 727.501 406.839C727.482 406.839 727.464 406.84 727.445 406.841C727.427 406.841 727.408 406.842 727.39 406.842C727.372 406.843 727.353 406.843 727.335 406.844C727.317 406.845 727.299 406.845 727.28 406.846C727.262 406.846 727.244 406.847 727.226 406.847C727.208 406.848 727.19 406.848 727.172 406.849C727.153 406.85 727.135 406.85 727.117 406.851C727.099 406.851 727.081 406.852 727.063 406.852C727.045 406.853 727.028 406.853 727.01 406.854C726.992 406.855 726.974 406.855 726.956 406.856C726.938 406.856 726.921 406.857 726.903 406.857C726.885 406.858 726.867 406.858 726.85 406.859C726.832 406.86 726.814 406.86 726.797 406.861C726.779 406.861 726.762 406.862 726.744 406.862C726.726 406.863 726.709 406.863 726.691 406.864C726.674 406.864 726.657 406.865 726.639 406.865C726.622 406.866 726.604 406.867 726.587 406.867C726.57 406.868 726.552 406.868 726.535 406.869C726.518 406.869 726.501 406.87 726.483 406.87C726.466 406.871 726.449 406.871 726.432 406.872C726.415 406.872 726.398 406.873 726.38 406.873C726.363 406.874 726.346 406.875 726.329 406.875C726.312 406.876 726.295 406.876 726.278 406.877C726.262 406.877 726.245 406.878 726.228 406.878C726.211 406.879 726.194 406.879 726.177 406.88C726.16 406.88 726.144 406.881 726.127 406.881C726.11 406.882 726.093 406.882 726.077 406.883C726.06 406.883 726.043 406.884 726.027 406.884C726.01 406.885 725.994 406.885 725.977 406.886C725.961 406.886 725.944 406.887 725.928 406.887C725.911 406.888 725.895 406.888 725.878 406.889C725.862 406.89 725.846 406.89 725.829 406.891C725.813 406.891 725.797 406.892 725.78 406.892C725.764 406.893 725.748 406.893 725.732 406.894C725.715 406.894 725.699 406.895 725.683 406.895C725.667 406.896 725.651 406.896 725.635 406.897C725.619 406.897 725.603 406.898 725.587 406.898C725.571 406.899 725.555 406.899 725.539 406.899C725.523 406.9 725.507 406.9 725.491 406.901C725.475 406.901 725.459 406.902 725.444 406.902C725.428 406.903 725.412 406.903 725.396 406.904C725.381 406.904 725.365 406.905 725.349 406.905C725.334 406.906 725.318 406.906 725.302 406.907C725.287 406.907 725.271 406.908 725.256 406.908C725.24 406.909 725.225 406.909 725.209 406.91C725.194 406.91 725.178 406.911 725.163 406.911C725.148 406.912 725.132 406.912 725.117 406.913C725.102 406.913 725.086 406.913 725.071 406.914C725.056 406.914 725.04 406.915 725.025 406.915C725.01 406.916 724.995 406.916 724.98 406.917C724.965 406.917 724.95 406.918 724.935 406.918C724.919 406.919 724.904 406.919 724.889 406.92C724.874 406.92 724.86 406.92 724.845 406.921C724.83 406.921 724.815 406.922 724.8 406.922C724.785 406.923 724.77 406.923 724.755 406.924C724.741 406.924 724.726 406.925 724.711 406.925C724.696 406.926 724.682 406.926 724.667 406.926C724.652 406.927 724.638 406.927 724.623 406.928C724.609 406.928 724.594 406.929 724.58 406.929C724.565 406.93 724.551 406.93 724.536 406.93C724.522 406.931 724.507 406.931 724.493 406.932C724.479 406.932 724.464 406.933 724.45 406.933C724.436 406.934 724.421 406.934 724.407 406.934C724.393 406.935 724.379 406.935 724.364 406.936C724.35 406.936 724.336 406.937 724.322 406.937C724.308 406.938 724.294 406.938 724.28 406.938C724.266 406.939 724.252 406.939 724.238 406.94C724.224 406.94 724.21 406.941 724.196 406.941C724.182 406.941 724.168 406.942 724.154 406.942C724.14 406.943 724.126 406.943 724.113 406.944C724.099 406.944 724.085 406.944 724.071 406.945C724.058 406.945 724.044 406.946 724.03 406.946C724.017 406.947 724.003 406.947 723.99 406.947C723.976 406.948 723.962 406.948 723.949 406.949C723.935 406.949 723.922 406.949 723.908 406.95C723.895 406.95 723.882 406.951 723.868 406.951C723.855 406.952 723.842 406.952 723.828 406.952C723.815 406.953 723.802 406.953 723.788 406.954C723.775 406.954 723.762 406.954 723.749 406.955C723.736 406.955 723.722 406.956 723.709 406.956C723.696 406.956 723.683 406.957 723.67 406.957C723.657 406.958 723.644 406.958 723.631 406.958C723.618 406.959 723.605 406.959 723.592 406.96C723.579 406.96 723.566 406.96 723.554 406.961C723.541 406.961 723.528 406.962 723.515 406.962C723.502 406.962 723.49 406.963 723.477 406.963C723.464 406.964 723.452 406.964 723.439 406.964C723.426 406.965 723.414 406.965 723.401 406.966C723.389 406.966 723.376 406.966 723.364 406.967C723.351 406.967 723.339 406.967 723.326 406.968C723.314 406.968 723.301 406.969 723.289 406.969C723.277 406.969 723.264 406.97 723.252 406.97C723.24 406.971 723.227 406.971 723.215 406.971C723.203 406.972 723.191 406.972 723.179 406.972C723.166 406.973 723.154 406.973 723.142 406.974C723.13 406.974 723.118 406.974 723.106 406.975C723.094 406.975 723.082 406.975 723.07 406.976C723.058 406.976 723.046 406.977 723.034 406.977C723.022 406.977 723.01 406.978 722.999 406.978C722.987 406.978 722.975 406.979 722.963 406.979C722.951 406.979 722.94 406.98 722.928 406.98C722.916 406.981 722.905 406.981 722.893 406.981C722.881 406.982 722.87 406.982 722.858 406.982C722.847 406.983 722.835 406.983 722.824 406.983C722.812 406.984 722.801 406.984 722.789 406.984C722.778 406.985 722.766 406.985 722.755 406.986C722.744 406.986 722.732 406.986 722.721 406.987C722.71 406.987 722.699 406.987 722.687 406.988C722.676 406.988 722.665 406.988 722.654 406.989C722.643 406.989 722.631 406.989 722.62 406.99C722.609 406.99 722.598 406.99 722.587 406.991C722.576 406.991 722.565 406.991 722.554 406.992C722.543 406.992 722.532 406.992 722.521 406.993C722.511 406.993 722.5 406.993 722.489 406.994C722.478 406.994 722.467 406.994 722.456 406.995C722.446 406.995 722.435 406.995 722.424 406.996C722.414 406.996 722.403 406.996 722.392 406.997C722.382 406.997 722.371 406.997 722.361 406.998C722.35 406.998 722.34 406.998 722.329 406.999C722.319 406.999 722.308 406.999 722.298 407C722.287 407 722.277 407 722.267 407.001C722.256 407.001 722.246 407.001 722.236 407.002C722.225 407.002 722.215 407.002 722.205 407.003C722.195 407.003 722.184 407.003 722.174 407.003C722.164 407.004 722.154 407.004 722.144 407.004C722.134 407.005 722.124 407.005 722.114 407.005C722.104 407.006 722.094 407.006 722.084 407.006C722.074 407.007 722.064 407.007 722.054 407.007C722.044 407.007 722.034 407.008 722.025 407.008C722.015 407.008 722.005 407.009 721.995 407.009C721.985 407.009 721.976 407.01 721.966 407.01C721.956 407.01 721.947 407.011 721.937 407.011C721.927 407.011 721.918 407.011 721.908 407.012C721.899 407.012 721.889 407.012 721.88 407.013C721.87 407.013 721.861 407.013 721.851 407.013C721.842 407.014 721.833 407.014 721.823 407.014C721.814 407.015 721.805 407.015 721.795 407.015C721.786 407.015 721.777 407.016 721.768 407.016C721.758 407.016 721.749 407.017 721.74 407.017C721.731 407.017 721.722 407.017 721.713 407.018C721.704 407.018 721.695 407.018 721.686 407.019C721.677 407.019 721.668 407.019 721.659 407.019C721.65 407.02 721.641 407.02 721.632 407.02C721.623 407.021 721.614 407.021 721.606 407.021C721.597 407.021 721.588 407.022 721.579 407.022C721.571 407.022 721.562 407.022 721.553 407.023C721.544 407.023 721.536 407.023 721.527 407.023C721.519 407.024 721.51 407.024 721.502 407.024C721.493 407.025 721.484 407.025 721.476 407.025C721.468 407.025 721.459 407.026 721.451 407.026C721.442 407.026 721.434 407.026 721.426 407.027C721.417 407.027 721.409 407.027 721.401 407.027C721.392 407.028 721.384 407.028 721.376 407.028C721.368 407.028 721.36 407.029 721.351 407.029C721.343 407.029 721.335 407.029 721.327 407.03C721.319 407.03 721.311 407.03 721.303 407.03C721.295 407.031 721.287 407.031 721.279 407.031C721.271 407.031 721.263 407.032 721.255 407.032C721.248 407.032 721.24 407.032 721.232 407.033C721.224 407.033 721.216 407.033 721.209 407.033C721.201 407.034 721.193 407.034 721.186 407.034C721.178 407.034 721.17 407.035 721.163 407.035C721.155 407.035 721.148 407.035 721.14 407.035C721.132 407.036 721.125 407.036 721.118 407.036C721.11 407.036 721.103 407.037 721.095 407.037C721.088 407.037 721.08 407.037 721.073 407.038C721.066 407.038 721.059 407.038 721.051 407.038C721.044 407.038 721.037 407.039 721.03 407.039C721.022 407.039 721.015 407.039 721.008 407.04C721.001 407.04 720.994 407.04 720.987 407.04C720.98 407.04 720.973 407.041 720.966 407.041C720.959 407.041 720.952 407.041 720.945 407.041C720.938 407.042 720.931 407.042 720.924 407.042C720.917 407.042 720.911 407.043 720.904 407.043C720.897 407.043 720.89 407.043 720.883 407.043C720.877 407.044 720.87 407.044 720.863 407.044C720.857 407.044 720.85 407.044 720.844 407.045C720.837 407.045 720.83 407.045 720.824 407.045C720.817 407.045 720.811 407.046 720.804 407.046C720.798 407.046 720.792 407.046 720.785 407.046C720.779 407.047 720.772 407.047 720.766 407.047C720.76 407.047 720.754 407.047 720.747 407.048C720.741 407.048 720.735 407.048 720.729 407.048C720.722 407.048 720.716 407.049 720.71 407.049C720.704 407.049 720.698 407.049 720.692 407.049C720.686 407.049 720.68 407.05 720.674 407.05C720.668 407.05 720.662 407.05 720.656 407.05C720.65 407.051 720.644 407.051 720.638 407.051C720.633 407.051 720.627 407.051 720.621 407.051C720.615 407.052 720.609 407.052 720.604 407.052C720.598 407.052 720.592 407.052 720.587 407.053C720.581 407.053 720.575 407.053 720.57 407.053C720.564 407.053 720.559 407.053 720.553 407.054C720.548 407.054 720.542 407.054 720.537 407.054C720.531 407.054 720.526 407.054 720.521 407.055C720.515 407.055 720.51 407.055 720.504 407.055C720.499 407.055 720.494 407.055 720.489 407.056C720.483 407.056 720.478 407.056 720.473 407.056C720.468 407.056 720.463 407.056 720.458 407.057C720.452 407.057 720.447 407.057 720.442 407.057C720.437 407.057 720.432 407.057 720.427 407.057C720.422 407.058 720.417 407.058 720.413 407.058C720.408 407.058 720.403 407.058 720.398 407.058C720.393 407.059 720.388 407.059 720.383 407.059C720.379 407.059 720.374 407.059 720.369 407.059C720.365 407.059 720.36 407.06 720.355 407.06C720.351 407.06 720.346 407.06 720.341 407.06C720.337 407.06 720.332 407.06 720.328 407.061C720.323 407.061 720.319 407.061 720.314 407.061C720.31 407.061 720.306 407.061 720.301 407.061C720.297 407.061 720.292 407.062 720.288 407.062C720.284 407.062 720.28 407.062 720.275 407.062C720.271 407.062 720.267 407.062 720.263 407.063C720.259 407.063 720.254 407.063 720.25 407.063C720.246 407.063 720.242 407.063 720.238 407.063C720.234 407.063 720.23 407.064 720.226 407.064C720.222 407.064 720.218 407.064 720.214 407.064C720.21 407.064 720.207 407.064 720.203 407.064C720.199 407.065 720.195 407.065 720.191 407.065C720.188 407.065 720.184 407.065 720.18 407.065C720.176 407.065 720.173 407.065 720.169 407.065C720.166 407.066 720.162 407.066 720.158 407.066C720.155 407.066 720.151 407.066 720.148 407.066C720.144 407.066 720.141 407.066 720.137 407.066C720.134 407.067 720.131 407.067 720.127 407.067C720.124 407.067 720.121 407.067 720.117 407.067C720.114 407.067 720.111 407.067 720.107 407.067C720.104 407.067 720.101 407.068 720.098 407.068C720.095 407.068 720.092 407.068 720.089 407.068C720.085 407.068 720.082 407.068 720.079 407.068C720.076 407.068 720.073 407.068 720.07 407.068C720.067 407.069 720.065 407.069 720.062 407.069C720.059 407.069 720.056 407.069 720.053 407.069C720.05 407.069 720.047 407.069 720.045 407.069C720.042 407.069 720.039 407.069 720.037 407.07C720.034 407.07 720.031 407.07 720.029 407.07C720.026 407.07 720.023 407.07 720.021 407.07C720.018 407.07 720.016 407.07 720.013 407.07C720.011 407.07 720.008 407.07 720.006 407.07C720.003 407.071 720.001 407.071 719.999 407.071C719.996 407.071 719.994 407.071 719.992 407.071C719.989 407.071 719.987 407.071 719.985 407.071C719.983 407.071 719.981 407.071 719.978 407.071C719.976 407.071 719.974 407.071 719.972 407.072C719.97 407.072 719.968 407.072 719.966 407.072C719.964 407.072 719.962 407.072 719.96 407.072C719.958 407.072 719.956 407.072 719.954 407.072C719.952 407.072 719.95 407.072 719.949 407.072C719.947 407.072 719.945 407.072 719.943 407.072C719.942 407.072 719.94 407.073 719.938 407.073C719.937 407.073 719.935 407.073 719.933 407.073C719.932 407.073 719.93 407.073 719.929 407.073C719.927 407.073 719.925 407.073 719.924 407.073C719.922 407.073 719.921 407.073 719.92 407.073C719.918 407.073 719.917 407.073 719.916 407.073C719.914 407.073 719.913 407.073 719.912 407.073C719.91 407.073 719.909 407.073 719.908 407.074C719.907 407.074 719.905 407.074 719.904 407.074C719.903 407.074 719.902 407.074 719.901 407.074C719.9 407.074 719.899 407.074 719.898 407.074C719.897 407.074 719.896 407.074 719.895 407.074C719.894 407.074 719.893 407.074 719.892 407.074C719.891 407.074 719.89 407.074 719.89 407.074C719.889 407.074 719.888 407.074 719.887 407.074C719.887 407.074 719.886 407.074 719.885 407.074C719.885 407.074 719.884 407.074 719.883 407.074C719.883 407.074 719.882 407.074 719.882 407.074C719.881 407.074 719.881 407.074 719.88 407.074C719.88 407.074 719.879 407.074 719.879 407.074C719.878 407.074 719.878 407.074 719.878 407.074C719.877 407.074 719.877 407.074 719.877 407.074C719.877 407.074 719.876 407.074 719.876 407.075C719.876 407.075 719.876 407.075 719.876 407.075C719.875 407.075 719.875 407.075 719.875 407.075C719.875 407.075 719.875 407.075 719.915 408.074ZM746.348 407.257L746.319 408.257C774.606 409.31 795.169 415.468 808.202 426.555L808.845 425.795L809.489 425.036C795.952 413.519 774.849 407.318 746.376 406.258L746.348 407.257ZM808.845 425.795L808.227 426.575C821.641 437.268 828.104 452.201 827.557 471.521L828.556 471.559L829.556 471.596C830.118 451.732 823.441 436.156 809.464 425.015L808.845 425.795ZM828.556 471.559L827.557 471.521C827.022 490.424 817.718 512.492 799.443 537.758L800.255 538.349L801.067 538.94C819.44 513.537 829.004 491.078 829.556 471.596L828.556 471.559ZM800.255 538.349L799.443 537.758C781.19 562.994 757.819 585.662 729.317 605.756L729.897 606.575L730.478 607.395C759.138 587.19 782.672 564.373 801.067 538.94L800.255 538.349ZM729.897 606.575L729.869 607.575L764.045 608.848L764.074 607.848L764.102 606.848L729.926 605.576L729.897 606.575ZM764.074 607.848L764.045 608.848C778.034 609.369 787.94 609.139 793.686 608.128L793.504 607.143L793.323 606.158C787.808 607.128 778.094 607.369 764.102 606.848L764.074 607.848ZM793.504 607.143L793.686 608.128C796.498 607.633 798.699 607.267 800.294 607.028C801.937 606.783 802.835 606.69 803.12 606.7L803.149 605.701L803.177 604.701C802.663 604.682 801.553 604.815 799.982 605.05C798.362 605.292 796.141 605.661 793.323 606.158L793.504 607.143ZM803.149 605.701L803.12 606.7C805.746 606.798 807.517 607.565 808.631 608.839C809.757 610.127 810.37 612.111 810.289 614.972L811.288 615.01L812.287 615.047C812.376 611.911 811.718 609.345 810.131 607.529C808.531 605.7 806.147 604.812 803.177 604.701L803.149 605.701ZM811.288 615.01L810.289 614.972C810.211 617.726 809.251 619.679 807.493 620.991C805.687 622.339 802.906 623.109 799.003 623.159L799.024 624.159L799.046 625.16C803.149 625.107 806.415 624.302 808.697 622.599C811.026 620.861 812.195 618.291 812.287 615.047L811.288 615.01ZM799.024 624.159L799.053 623.16C768.283 622.014 738.724 620.513 710.376 618.657L710.32 619.655L710.264 620.654C738.631 622.511 768.209 624.012 798.996 625.159L799.024 624.159ZM710.32 619.655L709.809 618.791C664.361 645.439 620.175 657.926 577.233 656.327L577.205 657.327L577.177 658.326C620.575 659.942 665.132 647.315 710.831 620.52L710.32 619.655ZM577.205 657.327L577.233 656.327C556.958 655.572 541.085 651.197 529.52 643.298L528.962 644.123L528.403 644.947C540.391 653.135 556.68 657.563 577.177 658.326L577.205 657.327ZM528.962 644.123L529.52 643.298C517.789 635.286 512.419 627.741 512.619 620.699L511.62 620.662L510.62 620.625C510.389 628.777 516.581 636.873 528.403 644.947L528.962 644.123ZM511.62 620.662L512.619 620.699C512.837 613.02 516.049 607.249 522.283 603.271L521.74 602.427L521.197 601.582C514.391 605.925 510.856 612.311 510.62 620.625L511.62 620.662ZM521.74 602.427L522.259 603.286C528.953 599.276 538.192 597.436 550.079 597.878L550.107 596.879L550.135 595.879C538.038 595.429 528.367 597.287 521.221 601.567L521.74 602.427ZM550.107 596.879L550.079 597.878C596.833 599.619 649.156 602.568 707.051 606.725L707.113 605.727L707.176 604.729C649.264 600.571 596.917 597.621 550.135 595.879L550.107 596.879ZM707.113 605.727L707.723 606.525C732.355 587.755 752.268 565.786 767.45 540.62L766.593 540.098L765.736 539.575C750.689 564.517 730.948 586.301 706.503 604.929L707.113 605.727ZM766.593 540.098L767.454 540.614C782.631 515.074 790.57 491.785 791.165 470.767L790.166 470.729L789.167 470.692C788.584 491.257 780.807 514.214 765.733 539.581L766.593 540.098ZM790.166 470.729L791.165 470.767C791.64 454.001 787.505 441.08 778.585 432.192C769.678 423.317 756.167 418.63 738.242 417.963L738.213 418.962L738.185 419.962C755.835 420.619 768.77 425.223 777.181 433.603C785.578 441.971 789.632 454.272 789.167 470.692L790.166 470.729ZM738.213 418.962L738.242 417.963C724.146 417.438 709.399 419.107 694.006 422.959L694.257 423.93L694.507 424.9C709.742 421.088 724.3 419.445 738.185 419.962L738.213 418.962ZM694.257 423.93L693.999 422.961C686.534 424.887 680.515 426.57 675.95 428.009C671.412 429.44 668.23 430.653 666.498 431.654L667.004 432.521L667.509 433.389C669.031 432.509 672.019 431.351 676.566 429.918C681.084 428.493 687.065 426.82 694.514 424.899L694.257 423.93ZM667.004 432.521L666.532 431.635C665.124 432.375 663.991 432.915 663.125 433.264C662.207 433.633 661.732 433.726 661.568 433.72L661.539 434.719L661.511 435.719C662.146 435.743 662.981 435.484 663.885 435.121C664.84 434.737 666.039 434.162 667.475 433.408L667.004 432.521ZM661.539 434.719L661.568 433.72C660.612 433.684 660.05 433.36 659.692 432.849C659.295 432.284 659.034 431.328 659.077 429.825L658.078 429.787L657.078 429.75C657.03 431.446 657.302 432.911 658.059 433.989C658.855 435.123 660.068 435.665 661.511 435.719L661.539 434.719ZM658.078 429.787L659.077 429.825C659.114 428.506 660.138 426.852 662.747 424.886C665.308 422.956 669.183 420.889 674.417 418.696L674.024 417.773L673.631 416.85C668.336 419.068 664.288 421.209 661.535 423.284C658.828 425.323 657.143 427.471 657.078 429.75L658.078 429.787ZM674.024 417.773L674.432 418.689C720.707 398.358 766.173 370.785 810.83 335.978L810.212 335.187L809.593 334.396C765.049 369.114 719.723 396.599 673.615 416.856L674.024 417.773ZM810.212 335.187L810.834 335.975C833.16 318.378 849.996 303.201 861.316 290.449C866.975 284.073 871.275 278.281 874.193 273.077C877.105 267.881 878.675 263.21 878.791 259.089L877.792 259.052L876.793 259.015C876.688 262.691 875.276 267.04 872.447 272.087C869.622 277.126 865.419 282.8 859.815 289.113C848.608 301.739 831.875 316.833 809.589 334.399L810.212 335.187ZM877.792 259.052L878.791 259.089C878.902 255.184 877.443 252.095 874.388 249.978C871.408 247.913 867.009 246.843 861.338 246.632L861.309 247.631L861.281 248.631C866.802 248.836 870.746 249.878 873.26 251.62C875.7 253.31 876.886 255.723 876.793 259.015L877.792 259.052ZM861.309 247.631L861.329 246.631C838.307 245.976 810.861 253.692 779.027 269.656C747.181 285.626 710.873 309.887 670.107 342.418L670.734 343.202L671.362 343.986C712.066 311.506 748.255 287.333 779.935 271.446C811.626 255.554 838.732 247.989 861.29 248.631L861.309 247.631ZM670.734 343.202L669.813 342.805C652.69 383.316 624.911 432.857 586.454 491.44L587.291 491.994L588.128 492.548C626.617 433.917 654.467 384.264 671.655 343.598L670.734 343.202ZM587.291 491.994L586.451 491.444C548.402 550.027 508.742 602.141 467.473 647.79L468.217 648.465L468.961 649.14C510.309 603.403 550.032 551.204 588.13 492.544L587.291 491.994ZM468.217 648.465L467.47 647.793C446.83 670.817 428.937 687.956 413.785 699.241C398.593 710.556 386.319 715.861 376.885 715.51L376.857 716.51L376.828 717.509C386.981 717.887 399.727 712.217 414.988 700.85C430.29 689.453 448.283 672.205 468.963 649.137L468.217 648.465ZM376.857 716.51L376.885 715.51C371.052 715.293 366.901 713.631 364.236 710.691C361.564 707.744 360.224 703.336 360.395 697.285L359.396 697.247L358.397 697.21C358.217 703.554 359.611 708.554 362.76 712.028C365.915 715.508 370.67 717.28 376.828 717.509L376.857 716.51ZM359.396 697.247L360.395 697.285C360.79 683.349 367.937 664.036 382.03 639.27C396.103 614.538 417.03 584.492 444.827 549.123L444.039 548.5L443.251 547.877C415.423 583.285 394.431 613.417 380.29 638.268C366.168 663.085 358.806 682.757 358.397 697.21L359.396 697.247ZM444.039 548.5L444.824 549.125C500.807 478.417 563.615 413.761 633.251 355.158L632.604 354.39L631.956 353.622C562.22 412.31 499.319 477.061 443.253 547.875L444.039 548.5ZM632.604 354.39L633.517 354.805C646.335 326.065 653.011 304.935 653.391 291.523L652.392 291.486L651.393 291.448C651.025 304.425 644.509 325.232 631.69 353.976L632.604 354.39ZM652.392 291.486L653.391 291.523C653.781 277.779 650.855 266.805 644.482 258.726L643.699 259.341L642.917 259.956C648.904 267.547 651.774 278.003 651.393 291.448L652.392 291.486ZM643.699 259.341L644.497 258.746C638.175 250.306 628.752 244.057 616.317 239.949L616.011 240.899L615.706 241.848C627.85 245.86 636.885 251.906 642.901 259.936L643.699 259.341ZM616.011 240.899L616.295 239.942C596.766 233.987 575.968 230.602 553.904 229.78L553.875 230.78L553.847 231.779C575.753 232.595 596.378 235.955 615.728 241.855L616.011 240.899ZM553.875 230.78L553.904 229.78C532.308 228.976 515.662 228.957 503.984 229.728L504.059 230.726L504.134 231.724C515.708 230.96 532.273 230.976 553.847 231.779L553.875 230.78ZM504.059 230.726L504.018 229.726C492.35 230.096 478.061 231.572 461.159 234.15L461.319 235.138L461.478 236.127C478.334 233.557 492.538 232.092 504.099 231.726L504.059 230.726ZM461.319 235.138L461.178 234.147C444.6 236.35 430.905 241.089 420.138 248.407L420.705 249.236L421.271 250.065C431.72 242.963 445.101 238.304 461.459 236.13L461.319 235.138ZM420.705 249.236L420.159 248.393C409.317 255.361 403.656 264.851 403.318 276.807L404.317 276.844L405.316 276.882C405.635 265.648 410.899 256.732 421.25 250.079L420.705 249.236ZM404.317 276.844L403.318 276.807C402.989 288.422 408.576 297.739 419.837 304.708L420.358 303.859L420.878 303.01C410.118 296.351 405.011 287.658 405.316 276.882L404.317 276.844ZM420.358 303.859L419.861 304.723C431.006 311.208 444.592 315.945 460.596 318.955L460.773 317.972L460.949 316.989C445.111 314.01 431.755 309.339 420.855 302.995L420.358 303.859ZM460.773 317.972L460.6 318.956C476.912 321.964 493.018 325.163 508.918 328.556L509.118 327.578L509.318 326.599C493.399 323.203 477.275 319.999 460.945 316.989L460.773 317.972ZM509.118 327.578L508.918 328.556C524.698 331.922 537.979 337.967 548.792 346.666L549.414 345.889L550.036 345.112C538.941 336.184 525.357 330.021 509.318 326.599L509.118 327.578ZM549.414 345.889L548.81 346.681C559.497 354.88 564.646 366.163 564.235 380.663L565.234 380.7L566.233 380.738C566.661 365.649 561.263 353.725 550.018 345.097L549.414 345.889ZM565.234 380.7L564.235 380.663C564.18 382.611 563.894 383.914 563.476 384.69C563.275 385.065 563.061 385.283 562.858 385.408C562.661 385.529 562.419 385.599 562.095 385.587L562.066 386.586L562.038 387.586C562.713 387.611 563.352 387.463 563.919 387.113C564.48 386.766 564.912 386.258 565.238 385.651C565.877 384.465 566.175 382.788 566.233 380.738L565.234 380.7ZM562.066 386.586L562.095 385.587C560.778 385.538 559.642 385.013 558.647 383.95L557.92 384.631L557.194 385.311C558.529 386.737 560.157 387.516 562.038 387.586L562.066 386.586ZM557.92 384.631L558.767 384.107C558.002 382.878 556.471 380.419 554.175 376.732L553.327 377.255L552.48 377.779C554.777 381.466 556.308 383.925 557.073 385.154L557.92 384.631ZM553.327 377.255L554.165 376.717C550.584 371.182 545.125 366.867 537.867 363.739L537.478 364.657L537.09 365.575C544.063 368.581 549.17 372.664 552.49 377.793L553.327 377.255ZM537.478 364.657L537.885 363.747C531.059 360.645 520.246 357.626 505.51 354.674L505.322 355.655L505.134 356.635C519.841 359.582 530.466 362.565 537.072 365.567L537.478 364.657ZM505.322 355.655L505.54 354.68C491.235 351.347 477.529 348.036 464.423 344.747L464.188 345.717L463.953 346.688C477.071 349.979 490.787 353.293 505.103 356.629L505.322 355.655ZM464.188 345.717L464.458 344.757C451.793 341.092 438.948 336.621 425.923 331.344L425.555 332.271L425.187 333.198C438.272 338.499 451.183 342.993 463.918 346.678L464.188 345.717ZM425.555 332.271L425.923 331.344C412.992 326.105 402.735 319.001 395.113 310.051L394.355 310.696L393.596 311.341C401.465 320.58 412.009 327.858 425.187 333.198L425.555 332.271ZM394.355 310.696L395.113 310.051C387.525 301.142 383.908 291.039 384.229 279.699L383.23 279.662L382.23 279.624C381.895 291.475 385.694 302.062 393.596 311.341L394.355 310.696ZM383.23 279.662L384.229 279.699C384.56 268.022 389.702 257.862 399.775 249.193L399.12 248.433L398.464 247.672C388.03 256.651 382.579 267.311 382.23 279.624L383.23 279.662ZM399.12 248.433L399.775 249.193C409.893 240.486 423.147 233.838 439.579 229.279L439.304 228.315L439.029 227.351C422.389 231.967 408.853 238.731 398.464 247.672L399.12 248.433ZM439.304 228.315L439.562 229.283C473.325 220.563 508.346 216.876 544.628 218.228L544.656 217.228L544.684 216.228C508.217 214.87 473.003 218.575 439.046 227.346L439.304 228.315ZM544.656 217.228L544.628 218.228C591.74 219.982 626.745 227.488 649.766 240.64C661.262 247.208 669.744 255.169 675.27 264.505C680.794 273.837 683.398 284.6 683.052 296.83L684.051 296.867L685.05 296.904C685.406 284.344 682.729 273.197 676.988 263.497C671.249 253.801 662.482 245.61 650.746 238.905C627.301 225.51 591.906 217.987 544.684 216.228L544.656 217.228ZM684.051 296.867L683.052 296.83C682.93 301.111 681.769 307.581 679.524 316.29L680.492 316.548L681.461 316.805C683.712 308.07 684.922 301.42 685.05 296.904L684.051 296.867ZM680.492 316.548L681.098 317.349C763.667 255.198 829.902 225.248 879.897 227.11L879.926 226.11L879.954 225.11C829.218 223.221 762.499 253.563 679.887 315.746L680.492 316.548ZM879.926 226.11L879.897 227.11C891.021 227.524 899.148 229.523 904.421 232.981C909.614 236.387 912.108 241.251 911.925 247.715L912.925 247.752L913.924 247.789C914.126 240.659 911.313 235.119 905.507 231.31C899.779 227.554 891.215 225.53 879.954 225.11L879.926 226.11ZM912.925 247.752L911.925 247.715C911.657 257.187 906.336 268.631 895.693 282.088C885.068 295.52 869.238 310.838 848.17 328.042L848.806 328.819L849.442 329.596C870.565 312.348 886.516 296.928 897.265 283.338C907.994 269.773 913.637 257.91 913.924 247.789L912.925 247.752ZM848.806 328.819L848.166 328.045C806.44 362.458 763.559 388.823 719.524 407.15L719.915 408.074L720.306 408.998C764.543 390.587 807.589 364.114 849.446 329.593L848.806 328.819ZM392.339 699.675L392.311 700.674C394.007 700.738 395.955 700.14 398.109 699.026C400.278 697.905 402.743 696.215 405.498 693.978C411.01 689.505 417.78 682.769 425.801 673.795C441.847 655.842 462.992 628.829 489.228 592.773L488.418 592.18L487.608 591.587C461.384 627.626 440.285 654.576 424.305 672.454C416.313 681.396 409.623 688.043 404.231 692.42C401.534 694.609 399.185 696.21 397.179 697.247C395.158 698.292 393.569 698.72 392.367 698.675L392.339 699.675ZM488.418 592.18L489.227 592.774C542.121 520.263 584.682 452.558 616.902 389.658L616.012 389.196L615.121 388.733C582.959 451.52 540.457 519.137 487.609 591.586L488.418 592.18ZM616.012 389.196L615.343 388.446C553.726 443.425 498.837 501.061 450.676 561.356L451.46 561.985L452.243 562.614C500.329 502.411 555.141 444.855 616.681 389.945L616.012 389.196ZM451.46 561.985L450.676 561.357C426.806 591.306 408.802 616.595 396.682 637.215C384.587 657.794 378.265 673.862 377.94 685.33L378.939 685.367L379.939 685.404C380.248 674.481 386.33 658.789 398.408 638.241C410.461 617.734 428.401 592.527 452.243 562.613L451.46 561.985ZM378.939 685.367L377.94 685.33C377.805 690.082 378.888 693.874 381.367 696.522C383.847 699.169 387.56 700.498 392.311 700.674L392.339 699.675L392.367 698.675C387.925 698.51 384.808 697.282 382.821 695.161C380.834 693.039 379.813 689.848 379.939 685.404L378.939 685.367ZM688.152 618.23L688.203 617.231L579.746 610.791L579.696 611.789L579.645 612.788L688.102 619.228L688.152 618.23ZM579.696 611.789L579.724 610.79C564.309 610.216 552.617 610.93 544.713 612.98C540.762 614.005 537.677 615.383 535.547 617.168C533.388 618.977 532.212 621.207 532.137 623.828L533.137 623.865L534.136 623.902C534.192 621.924 535.054 620.202 536.839 618.706C538.654 617.186 541.422 615.905 545.231 614.917C552.847 612.942 564.303 612.217 579.667 612.789L579.696 611.789ZM533.137 623.865L532.137 623.828C532.053 626.795 533.468 629.597 536.123 632.216C538.77 634.827 542.719 637.33 547.903 639.746L548.318 638.84L548.734 637.933C543.65 635.564 539.934 633.178 537.52 630.798C535.115 628.425 534.073 626.132 534.136 623.902L533.137 623.865ZM548.318 638.84L547.874 639.732C558.282 644.993 570.353 647.865 584.061 648.376L584.089 647.376L584.118 646.377C570.645 645.875 558.868 643.056 548.763 637.948L548.318 638.84ZM584.089 647.376L584.061 648.376C619.856 649.709 654.735 639.929 688.681 619.083L688.152 618.23L687.624 617.376C653.97 638.042 619.474 647.693 584.118 646.377L584.089 647.376Z" fill="black" mask="url(#path-1-outside-1_3_10)"/>
<mask id="path-3-outside-2_3_10" maskUnits="userSpaceOnUse" x="0" y="82" width="552" height="485" fill="black">
<rect fill="white" y="82" width="552" height="485"/>
<path d="M50.4 518.8L45 530.2C45 531.4 45.6 532 46.8 532C67.2 532 91 515.4 118.2 482.2C140.6 455 168 417.4 200.4 369.4C189.2 370.2 170.8 370.6 145.2 370.6C120 370.6 103 370 94.2 368.8C85.4 367.6 80.8 364.2 80.4 358.6C80.4 356.2 81 354.8 82.2 354.4C83.4 353.6 97.6 353.2 124.8 353.2C152 353.2 181.4 352.6 213 351.4C275 261 325.4 197.4 364.2 160.6C297.4 171.4 225.4 176.8 148.2 176.8C120.2 176.8 86.6 175.8 47.4 173.8C44.2 173.8 42.6 175.2 42.6 178C42.6 178.8 43 180.8 43.8 184C43.8 187.6 41 189.4 35.4 189.4C30.2 189.4 23.4 186.6 15 181C6.6 175.4 2.2 169.6 1.8 163.6C1.8 152.4 9 146.8 23.4 146.8C93 151.6 158.4 154 219.6 154C280.8 154 335.6 150.4 384 143.2C432 103.2 478.4 83.2 523.2 83.2C541.2 83.2 550.2 86.4 550.2 92.8C550.2 104 526 117.6 477.6 133.6C452.8 142 424 149.4 391.2 155.8C362.4 183 329.6 223.2 292.8 276.4C280.4 293.6 263.8 318 243 349.6L331.8 343C340.2 343 344.4 347.4 344.4 356.2C344.4 359.8 340.6 363.4 333 367C325.4 370.2 317.8 374.2 310.2 379C302.6 383.8 298.8 389.6 298.8 396.4C298.8 402.8 296.8 406 292.8 406C274.4 406 265.2 402.4 265.2 395.2C265.2 387.2 270.2 378.2 280.2 368.2C280.2 366.6 278.8 365.8 276 365.8L240.6 367.6L231 368.2C179.8 447 139.8 499.8 111 526.6C83 552.6 58 565.6 36 565.6C22 565.6 15 560 15 548.8C15 541.2 18 533.4 24 525.4C30 517.4 35.8 513.4 41.4 513.4C47.4 513.4 50.4 515.2 50.4 518.8ZM502.8 100C473.6 100 442.8 113 410.4 139C454.8 131 484.4 122 499.2 112C504.8 108 507.6 105 507.6 103C507.6 101 506 100 502.8 100ZM340.936 519.4C344.936 519.4 347.936 520.6 349.936 523C352.336 525.4 353.536 528.8 353.536 533.2C353.536 537.6 350.536 543.2 344.536 550C338.536 556.8 333.336 560.2 328.936 560.2C324.536 560.2 321.336 558.8 319.336 556C317.336 553.6 316.336 550.6 316.336 547C316.336 543.8 319.536 538.4 325.936 530.8C332.336 523.2 337.336 519.4 340.936 519.4Z"/>
</mask>
<path d="M50.4 518.8L45 530.2C45 531.4 45.6 532 46.8 532C67.2 532 91 515.4 118.2 482.2C140.6 455 168 417.4 200.4 369.4C189.2 370.2 170.8 370.6 145.2 370.6C120 370.6 103 370 94.2 368.8C85.4 367.6 80.8 364.2 80.4 358.6C80.4 356.2 81 354.8 82.2 354.4C83.4 353.6 97.6 353.2 124.8 353.2C152 353.2 181.4 352.6 213 351.4C275 261 325.4 197.4 364.2 160.6C297.4 171.4 225.4 176.8 148.2 176.8C120.2 176.8 86.6 175.8 47.4 173.8C44.2 173.8 42.6 175.2 42.6 178C42.6 178.8 43 180.8 43.8 184C43.8 187.6 41 189.4 35.4 189.4C30.2 189.4 23.4 186.6 15 181C6.6 175.4 2.2 169.6 1.8 163.6C1.8 152.4 9 146.8 23.4 146.8C93 151.6 158.4 154 219.6 154C280.8 154 335.6 150.4 384 143.2C432 103.2 478.4 83.2 523.2 83.2C541.2 83.2 550.2 86.4 550.2 92.8C550.2 104 526 117.6 477.6 133.6C452.8 142 424 149.4 391.2 155.8C362.4 183 329.6 223.2 292.8 276.4C280.4 293.6 263.8 318 243 349.6L331.8 343C340.2 343 344.4 347.4 344.4 356.2C344.4 359.8 340.6 363.4 333 367C325.4 370.2 317.8 374.2 310.2 379C302.6 383.8 298.8 389.6 298.8 396.4C298.8 402.8 296.8 406 292.8 406C274.4 406 265.2 402.4 265.2 395.2C265.2 387.2 270.2 378.2 280.2 368.2C280.2 366.6 278.8 365.8 276 365.8L240.6 367.6L231 368.2C179.8 447 139.8 499.8 111 526.6C83 552.6 58 565.6 36 565.6C22 565.6 15 560 15 548.8C15 541.2 18 533.4 24 525.4C30 517.4 35.8 513.4 41.4 513.4C47.4 513.4 50.4 515.2 50.4 518.8ZM502.8 100C473.6 100 442.8 113 410.4 139C454.8 131 484.4 122 499.2 112C504.8 108 507.6 105 507.6 103C507.6 101 506 100 502.8 100ZM340.936 519.4C344.936 519.4 347.936 520.6 349.936 523C352.336 525.4 353.536 528.8 353.536 533.2C353.536 537.6 350.536 543.2 344.536 550C338.536 556.8 333.336 560.2 328.936 560.2C324.536 560.2 321.336 558.8 319.336 556C317.336 553.6 316.336 550.6 316.336 547C316.336 543.8 319.536 538.4 325.936 530.8C332.336 523.2 337.336 519.4 340.936 519.4Z" fill="black"/>
<path d="M50.4 518.8L51.3037 519.228L51.4 519.025V518.8H50.4ZM45 530.2L44.0963 529.772L44 529.975V530.2H45ZM118.2 482.2L117.428 481.564L117.426 481.566L118.2 482.2ZM200.4 369.4L201.229 369.959L202.379 368.256L200.329 368.403L200.4 369.4ZM94.2 368.8L94.3351 367.809L94.3351 367.809L94.2 368.8ZM80.4 358.6H79.4V358.636L79.4025 358.671L80.4 358.6ZM82.2 354.4L82.5162 355.349L82.6433 355.306L82.7547 355.232L82.2 354.4ZM213 351.4L213.038 352.399L213.54 352.38L213.825 351.966L213 351.4ZM364.2 160.6L364.888 161.326L367.239 159.096L364.04 159.613L364.2 160.6ZM47.4 173.8L47.451 172.801L47.4255 172.8H47.4V173.8ZM43.8 184H44.8V183.877L44.7701 183.757L43.8 184ZM15 181L15.5547 180.168L15 181ZM1.8 163.6H0.799999V163.633L0.802214 163.667L1.8 163.6ZM23.4 146.8L23.4688 145.802L23.4344 145.8H23.4V146.8ZM384 143.2L384.147 144.189L384.425 144.148L384.64 143.968L384 143.2ZM477.6 133.6L477.286 132.651L477.279 132.653L477.6 133.6ZM391.2 155.8L391.009 154.819L390.724 154.874L390.513 155.073L391.2 155.8ZM292.8 276.4L293.611 276.985L293.617 276.977L293.622 276.969L292.8 276.4ZM243 349.6L242.165 349.05L241.047 350.748L243.074 350.597L243 349.6ZM331.8 343V342H331.763L331.726 342.003L331.8 343ZM333 367L333.388 367.922L333.408 367.913L333.428 367.904L333 367ZM310.2 379L309.666 378.155L309.666 378.155L310.2 379ZM280.2 368.2L280.907 368.907L281.2 368.614V368.2H280.2ZM276 365.8V364.8H275.975L275.949 364.801L276 365.8ZM240.6 367.6L240.549 366.601L240.538 366.602L240.6 367.6ZM231 368.2L230.938 367.202L230.436 367.233L230.161 367.655L231 368.2ZM111 526.6L111.68 527.333L111.681 527.332L111 526.6ZM24 525.4L24.8 526L24.8 526L24 525.4ZM410.4 139L409.774 138.22L410.577 139.984L410.4 139ZM499.2 112L499.76 112.829L499.771 112.821L499.781 112.814L499.2 112ZM50.4 518.8L49.4963 518.372L44.0963 529.772L45 530.2L45.9037 530.628L51.3037 519.228L50.4 518.8ZM45 530.2H44C44 530.954 44.1892 531.703 44.7429 532.257C45.2966 532.811 46.0459 533 46.8 533V532V531C46.3541 531 46.2034 530.889 46.1571 530.843C46.1108 530.797 46 530.646 46 530.2H45ZM46.8 532V533C57.2744 533 68.5225 528.74 80.5221 520.37C92.5242 511.999 105.34 499.474 118.974 482.834L118.2 482.2L117.426 481.566C103.86 498.126 91.1758 510.501 79.3779 518.73C67.5775 526.96 56.7256 531 46.8 531V532ZM118.2 482.2L118.972 482.836C141.401 455.601 168.821 417.971 201.229 369.959L200.4 369.4L199.571 368.841C167.179 416.829 139.799 454.399 117.428 481.564L118.2 482.2ZM200.4 369.4L200.329 368.403C189.167 369.2 170.798 369.6 145.2 369.6V370.6V371.6C170.802 371.6 189.233 371.2 200.471 370.397L200.4 369.4ZM145.2 370.6V369.6C119.991 369.6 103.058 368.999 94.3351 367.809L94.2 368.8L94.0649 369.791C102.942 371.001 120.009 371.6 145.2 371.6V370.6ZM94.2 368.8L94.3351 367.809C90.0179 367.22 86.8548 366.106 84.7444 364.546C82.6743 363.016 81.5762 361.031 81.3975 358.529L80.4 358.6L79.4025 358.671C79.6238 361.769 81.0257 364.284 83.5556 366.154C86.0452 367.994 89.5821 369.18 94.0649 369.791L94.2 368.8ZM80.4 358.6H81.4C81.4 357.466 81.5443 356.668 81.7691 356.144C81.9817 355.648 82.2422 355.44 82.5162 355.349L82.2 354.4L81.8838 353.451C80.9578 353.76 80.3183 354.452 79.9309 355.356C79.5557 356.231 79.4 357.334 79.4 358.6H80.4ZM82.2 354.4L82.7547 355.232C82.686 355.278 82.6777 355.263 82.8339 355.221C82.9644 355.187 83.1546 355.148 83.4148 355.107C83.9335 355.025 84.6632 354.946 85.6152 354.872C87.5154 354.724 90.2335 354.599 93.7782 354.5C100.864 354.3 111.203 354.2 124.8 354.2V353.2V352.2C111.197 352.2 100.836 352.3 93.7218 352.5C90.1665 352.601 87.4096 352.726 85.4598 352.878C84.4868 352.954 83.6978 353.037 83.104 353.131C82.8079 353.177 82.5434 353.229 82.3207 353.288C82.1239 353.34 81.864 353.422 81.6453 353.568L82.2 354.4ZM124.8 353.2V354.2C152.014 354.2 181.427 353.6 213.038 352.399L213 351.4L212.962 350.401C181.373 351.6 151.986 352.2 124.8 352.2V353.2ZM213 351.4L213.825 351.966C275.817 261.576 326.168 198.049 364.888 161.326L364.2 160.6L363.512 159.874C324.632 196.751 274.183 260.424 212.175 350.834L213 351.4ZM364.2 160.6L364.04 159.613C297.3 170.403 225.354 175.8 148.2 175.8V176.8V177.8C225.446 177.8 297.5 172.397 364.36 161.587L364.2 160.6ZM148.2 176.8V175.8C120.222 175.8 86.6401 174.801 47.451 172.801L47.4 173.8L47.349 174.799C86.5599 176.799 120.178 177.8 148.2 177.8V176.8ZM47.4 173.8V172.8C45.6762 172.8 44.1966 173.174 43.1415 174.097C42.0609 175.043 41.6 176.409 41.6 178H42.6H43.6C43.6 176.791 43.9391 176.057 44.4585 175.603C45.0034 175.126 45.9238 174.8 47.4 174.8V173.8ZM42.6 178H41.6C41.6 178.511 41.7203 179.301 41.9194 180.296C42.1238 181.318 42.428 182.635 42.8299 184.243L43.8 184L44.7701 183.757C44.372 182.165 44.0762 180.882 43.8806 179.904C43.6797 178.899 43.6 178.289 43.6 178H42.6ZM43.8 184H42.8C42.8 185.493 42.2462 186.51 41.1592 187.209C39.9966 187.956 38.1249 188.4 35.4 188.4V189.4V190.4C38.2751 190.4 40.6034 189.944 42.2408 188.891C43.9538 187.79 44.8 186.107 44.8 184H43.8ZM35.4 189.4V188.4C30.5103 188.4 23.9201 185.745 15.5547 180.168L15 181L14.4453 181.832C22.8799 187.455 29.8897 190.4 35.4 190.4V189.4ZM15 181L15.5547 180.168C7.24062 174.625 3.16639 169.063 2.79778 163.533L1.8 163.6L0.802214 163.667C1.23361 170.137 5.95938 176.175 14.4453 181.832L15 181ZM1.8 163.6H2.8C2.8 158.231 4.51307 154.357 7.81394 151.789C11.1626 149.185 16.302 147.8 23.4 147.8V146.8V145.8C16.098 145.8 10.4374 147.215 6.58606 150.211C2.68693 153.243 0.799999 157.769 0.799999 163.6H1.8ZM23.4 146.8L23.3312 147.798C92.951 152.599 158.374 155 219.6 155V154V153C158.426 153 93.049 150.601 23.4688 145.802L23.4 146.8ZM219.6 154V155C280.838 155 335.688 151.398 384.147 144.189L384 143.2L383.853 142.211C335.512 149.402 280.762 153 219.6 153V154ZM384 143.2L384.64 143.968C432.531 104.059 478.711 84.2 523.2 84.2V83.2V82.2C478.089 82.2 431.469 102.341 383.36 142.432L384 143.2ZM523.2 83.2V84.2C532.168 84.2 538.78 85.0007 543.115 86.5422C545.278 87.3112 546.805 88.2408 547.783 89.2839C548.74 90.3043 549.2 91.4618 549.2 92.8H550.2H551.2C551.2 90.9381 550.535 89.2956 549.242 87.916C547.97 86.5592 546.122 85.4888 543.785 84.6578C539.12 82.9993 532.232 82.2 523.2 82.2V83.2ZM550.2 92.8H549.2C549.2 95.2271 547.886 97.939 544.947 100.952C542.016 103.955 537.571 107.15 531.56 110.528C519.545 117.281 501.467 124.657 477.286 132.651L477.6 133.6L477.914 134.549C502.133 126.543 520.356 119.119 532.54 112.272C538.629 108.85 543.259 105.545 546.378 102.348C549.489 99.1609 551.2 95.9729 551.2 92.8H550.2ZM477.6 133.6L477.279 132.653C452.531 141.035 423.776 148.425 391.009 154.819L391.2 155.8L391.392 156.781C424.224 150.375 453.069 142.965 477.921 134.547L477.6 133.6ZM391.2 155.8L390.513 155.073C361.641 182.341 328.796 222.605 291.978 275.831L292.8 276.4L293.622 276.969C330.404 223.795 363.159 183.659 391.887 156.527L391.2 155.8ZM292.8 276.4L291.989 275.815C279.577 293.032 262.967 317.446 242.165 349.05L243 349.6L243.835 350.15C264.633 318.554 281.223 294.168 293.611 276.985L292.8 276.4ZM243 349.6L243.074 350.597L331.874 343.997L331.8 343L331.726 342.003L242.926 348.603L243 349.6ZM331.8 343V344C335.834 344 338.678 345.054 340.527 346.99C342.383 348.936 343.4 351.943 343.4 356.2H344.4H345.4C345.4 351.657 344.317 348.064 341.973 345.61C339.622 343.146 336.166 342 331.8 342V343ZM344.4 356.2H343.4C343.4 357.621 342.654 359.176 340.862 360.874C339.071 362.571 336.327 364.318 332.572 366.096L333 367L333.428 367.904C337.273 366.082 340.229 364.229 342.238 362.326C344.246 360.424 345.4 358.379 345.4 356.2H344.4ZM333 367L332.612 366.078C324.957 369.301 317.308 373.328 309.666 378.155L310.2 379L310.734 379.845C318.292 375.072 325.843 371.098 333.388 367.922L333 367ZM310.2 379L309.666 378.155C301.881 383.071 297.8 389.149 297.8 396.4H298.8H299.8C299.8 390.051 303.319 384.528 310.734 379.845L310.2 379ZM298.8 396.4H297.8C297.8 399.528 297.305 401.705 296.452 403.07C295.648 404.357 294.48 405 292.8 405V406V407C295.12 407 296.952 406.043 298.148 404.13C299.295 402.295 299.8 399.672 299.8 396.4H298.8ZM292.8 406V405C283.636 405 276.887 404.099 272.464 402.369C270.261 401.507 268.696 400.461 267.686 399.277C266.693 398.11 266.2 396.766 266.2 395.2H265.2H264.2C264.2 397.234 264.857 399.04 266.164 400.573C267.454 402.089 269.339 403.293 271.736 404.231C276.513 406.101 283.564 407 292.8 407V406ZM265.2 395.2H266.2C266.2 387.607 270.962 378.852 280.907 368.907L280.2 368.2L279.493 367.493C269.438 377.548 264.2 386.793 264.2 395.2H265.2ZM280.2 368.2H281.2C281.2 367.038 280.655 366.108 279.646 365.532C278.721 365.003 277.462 364.8 276 364.8V365.8V366.8C277.338 366.8 278.179 366.997 278.654 367.268C279.045 367.492 279.2 367.762 279.2 368.2H280.2ZM276 365.8L275.949 364.801L240.549 366.601L240.6 367.6L240.651 368.599L276.051 366.799L276 365.8ZM240.6 367.6L240.538 366.602L230.938 367.202L231 368.2L231.062 369.198L240.662 368.598L240.6 367.6ZM231 368.2L230.161 367.655C178.962 446.455 139.019 499.16 110.319 525.868L111 526.6L111.681 527.332C140.581 500.44 180.638 447.545 231.839 368.745L231 368.2ZM111 526.6L110.32 525.867C82.3793 551.812 57.6172 564.6 36 564.6V565.6V566.6C58.3828 566.6 83.6207 553.388 111.68 527.333L111 526.6ZM36 565.6V564.6C29.1068 564.6 24.122 563.217 20.8747 560.619C17.67 558.055 16 554.179 16 548.8H15H14C14 554.621 15.83 559.145 19.6253 562.181C23.378 565.183 28.8932 566.6 36 566.6V565.6ZM15 548.8H16C16 541.476 18.8889 533.881 24.8 526L24 525.4L23.2 524.8C17.1111 532.919 14 540.924 14 548.8H15ZM24 525.4L24.8 526C30.7536 518.062 36.2937 514.4 41.4 514.4V513.4V512.4C35.3063 512.4 29.2464 516.738 23.2 524.8L24 525.4ZM41.4 513.4V514.4C44.3326 514.4 46.3659 514.846 47.6355 515.607C48.8237 516.32 49.4 517.339 49.4 518.8H50.4H51.4C51.4 516.661 50.4763 514.98 48.6645 513.893C46.9341 512.854 44.4674 512.4 41.4 512.4V513.4ZM502.8 100V99C473.293 99 442.278 112.137 409.774 138.22L410.4 139L411.026 139.78C443.322 113.863 473.907 101 502.8 101V100ZM410.4 139L410.577 139.984C432.8 135.98 451.341 131.722 466.191 127.207C481.027 122.696 492.238 117.911 499.76 112.829L499.2 112L498.64 111.171C491.362 116.089 480.373 120.804 465.609 125.293C450.859 129.778 432.4 134.02 410.223 138.016L410.4 139ZM499.2 112L499.781 112.814C502.604 110.797 504.765 109.003 506.231 107.432C507.65 105.912 508.6 104.413 508.6 103H507.6H506.6C506.6 103.587 506.15 104.588 504.769 106.068C503.435 107.497 501.396 109.203 498.619 111.186L499.2 112ZM507.6 103H508.6C508.6 101.68 508.043 100.598 506.93 99.902C505.895 99.2554 504.472 99 502.8 99V100V101C504.328 101 505.305 101.245 505.87 101.598C506.357 101.902 506.6 102.32 506.6 103H507.6ZM349.936 523L349.168 523.64L349.197 523.675L349.229 523.707L349.936 523ZM344.536 550L345.286 550.662L345.286 550.662L344.536 550ZM319.336 556L320.15 555.419L320.128 555.388L320.104 555.36L319.336 556ZM325.936 530.8L326.701 531.444L326.701 531.444L325.936 530.8ZM340.936 519.4V520.4C344.729 520.4 347.409 521.529 349.168 523.64L349.936 523L350.704 522.36C348.463 519.671 345.143 518.4 340.936 518.4V519.4ZM349.936 523L349.229 523.707C351.39 525.869 352.536 528.983 352.536 533.2H353.536H354.536C354.536 528.617 353.282 524.931 350.643 522.293L349.936 523ZM353.536 533.2H352.536C352.536 537.203 349.769 542.558 343.786 549.338L344.536 550L345.286 550.662C351.303 543.842 354.536 537.997 354.536 533.2H353.536ZM344.536 550L343.786 549.338C340.821 552.699 338.088 555.179 335.589 556.813C333.087 558.449 330.877 559.2 328.936 559.2V560.2V561.2C331.395 561.2 333.985 560.251 336.683 558.487C339.384 556.721 342.251 554.101 345.286 550.662L344.536 550ZM328.936 560.2V559.2C324.759 559.2 321.911 557.884 320.15 555.419L319.336 556L318.522 556.581C320.761 559.716 324.313 561.2 328.936 561.2V560.2ZM319.336 556L320.104 555.36C318.276 553.166 317.336 550.404 317.336 547H316.336H315.336C315.336 550.796 316.396 554.034 318.568 556.64L319.336 556ZM316.336 547H317.336C317.336 545.682 318.015 543.728 319.596 541.06C321.157 538.426 323.518 535.223 326.701 531.444L325.936 530.8L325.171 530.156C321.953 533.977 319.515 537.274 317.876 540.04C316.257 542.772 315.336 545.118 315.336 547H316.336ZM325.936 530.8L326.701 531.444C329.877 527.672 332.673 524.884 335.091 523.046C337.533 521.19 339.465 520.4 340.936 520.4V519.4V518.4C338.807 518.4 336.439 519.51 333.881 521.454C331.298 523.416 328.394 526.328 325.171 530.156L325.936 530.8Z" fill="black" mask="url(#path-3-outside-2_3_10)"/>
</svg>
